<?xml version="1.0" encoding="utf-8" standalone="no"?>
<!DOCTYPE svg PUBLIC "-//W3C//DTD SVG 1.1//EN"
  "http://www.w3.org/Graphics/SVG/1.1/DTD/svg11.dtd">
<svg height="720pt" version="1.1" viewBox="0 0 1152 720" width="1152pt" xmlns="http://www.w3.org/2000/svg" xmlns:xlink="http://www.w3.org/1999/xlink">
 <metadata>
  <rdf:RDF xmlns:cc="http://creativecommons.org/ns#" xmlns:dc="http://purl.org/dc/elements/1.1/" xmlns:rdf="http://www.w3.org/1999/02/22-rdf-syntax-ns#">
   <cc:Work>
    <dc:type rdf:resource="http://purl.org/dc/dcmitype/StillImage"/>
    <dc:date>2023-05-10T14:43:47.907659</dc:date>
    <dc:format>image/svg+xml</dc:format>
    <dc:creator>
     <cc:Agent>
      <dc:title>Matplotlib v3.4.3, https://matplotlib.org/</dc:title>
     </cc:Agent>
    </dc:creator>
   </cc:Work>
  </rdf:RDF>
 </metadata>
 <defs>
  <style type="text/css">*{stroke-linecap:butt;stroke-linejoin:round;}</style>
 </defs>
 <g id="figure_1">
  <g id="patch_1">
   <path d="M 0 720 
L 1152 720 
L 1152 0 
L 0 0 
z
" style="fill:#ffffff;"/>
  </g>
  <g id="axes_1">
   <g id="patch_2">
    <path d="M 144 640.8 
L 1036.8 640.8 
L 1036.8 86.4 
L 144 86.4 
z
" style="fill:#ffffff;"/>
   </g>
   <g id="matplotlib.axis_1">
    <g id="xtick_1">
     <g id="line2d_1">
      <path clip-path="url(#pf22618ab81)" d="M 184.581818 640.8 
L 184.581818 86.4 
" style="fill:none;stroke:#b0b0b0;stroke-linecap:square;stroke-width:0.8;"/>
     </g>
     <g id="line2d_2">
      <defs>
       <path d="M 0 0 
L 0 3.5 
" id="mb1cf0280ec" style="stroke:#000000;stroke-width:0.8;"/>
      </defs>
      <g>
       <use style="stroke:#000000;stroke-width:0.8;" x="184.581818" xlink:href="#mb1cf0280ec" y="640.8"/>
      </g>
     </g>
     <g id="text_1">
      <!-- 0 -->
      <g transform="translate(181.400568 655.398438)scale(0.1 -0.1)">
       <defs>
        <path d="M 2034 4250 
Q 1547 4250 1301 3770 
Q 1056 3291 1056 2328 
Q 1056 1369 1301 889 
Q 1547 409 2034 409 
Q 2525 409 2770 889 
Q 3016 1369 3016 2328 
Q 3016 3291 2770 3770 
Q 2525 4250 2034 4250 
z
M 2034 4750 
Q 2819 4750 3233 4129 
Q 3647 3509 3647 2328 
Q 3647 1150 3233 529 
Q 2819 -91 2034 -91 
Q 1250 -91 836 529 
Q 422 1150 422 2328 
Q 422 3509 836 4129 
Q 1250 4750 2034 4750 
z
" id="DejaVuSans-30" transform="scale(0.015625)"/>
       </defs>
       <use xlink:href="#DejaVuSans-30"/>
      </g>
     </g>
    </g>
    <g id="xtick_2">
     <g id="line2d_3">
      <path clip-path="url(#pf22618ab81)" d="M 252.106766 640.8 
L 252.106766 86.4 
" style="fill:none;stroke:#b0b0b0;stroke-linecap:square;stroke-width:0.8;"/>
     </g>
     <g id="line2d_4">
      <g>
       <use style="stroke:#000000;stroke-width:0.8;" x="252.106766" xlink:href="#mb1cf0280ec" y="640.8"/>
      </g>
     </g>
     <g id="text_2">
      <!-- 1 -->
      <g transform="translate(248.925516 655.398438)scale(0.1 -0.1)">
       <defs>
        <path d="M 794 531 
L 1825 531 
L 1825 4091 
L 703 3866 
L 703 4441 
L 1819 4666 
L 2450 4666 
L 2450 531 
L 3481 531 
L 3481 0 
L 794 0 
L 794 531 
z
" id="DejaVuSans-31" transform="scale(0.015625)"/>
       </defs>
       <use xlink:href="#DejaVuSans-31"/>
      </g>
     </g>
    </g>
    <g id="xtick_3">
     <g id="line2d_5">
      <path clip-path="url(#pf22618ab81)" d="M 319.631713 640.8 
L 319.631713 86.4 
" style="fill:none;stroke:#b0b0b0;stroke-linecap:square;stroke-width:0.8;"/>
     </g>
     <g id="line2d_6">
      <g>
       <use style="stroke:#000000;stroke-width:0.8;" x="319.631713" xlink:href="#mb1cf0280ec" y="640.8"/>
      </g>
     </g>
     <g id="text_3">
      <!-- 2 -->
      <g transform="translate(316.450463 655.398438)scale(0.1 -0.1)">
       <defs>
        <path d="M 1228 531 
L 3431 531 
L 3431 0 
L 469 0 
L 469 531 
Q 828 903 1448 1529 
Q 2069 2156 2228 2338 
Q 2531 2678 2651 2914 
Q 2772 3150 2772 3378 
Q 2772 3750 2511 3984 
Q 2250 4219 1831 4219 
Q 1534 4219 1204 4116 
Q 875 4013 500 3803 
L 500 4441 
Q 881 4594 1212 4672 
Q 1544 4750 1819 4750 
Q 2544 4750 2975 4387 
Q 3406 4025 3406 3419 
Q 3406 3131 3298 2873 
Q 3191 2616 2906 2266 
Q 2828 2175 2409 1742 
Q 1991 1309 1228 531 
z
" id="DejaVuSans-32" transform="scale(0.015625)"/>
       </defs>
       <use xlink:href="#DejaVuSans-32"/>
      </g>
     </g>
    </g>
    <g id="xtick_4">
     <g id="line2d_7">
      <path clip-path="url(#pf22618ab81)" d="M 387.156661 640.8 
L 387.156661 86.4 
" style="fill:none;stroke:#b0b0b0;stroke-linecap:square;stroke-width:0.8;"/>
     </g>
     <g id="line2d_8">
      <g>
       <use style="stroke:#000000;stroke-width:0.8;" x="387.156661" xlink:href="#mb1cf0280ec" y="640.8"/>
      </g>
     </g>
     <g id="text_4">
      <!-- 3 -->
      <g transform="translate(383.975411 655.398438)scale(0.1 -0.1)">
       <defs>
        <path d="M 2597 2516 
Q 3050 2419 3304 2112 
Q 3559 1806 3559 1356 
Q 3559 666 3084 287 
Q 2609 -91 1734 -91 
Q 1441 -91 1130 -33 
Q 819 25 488 141 
L 488 750 
Q 750 597 1062 519 
Q 1375 441 1716 441 
Q 2309 441 2620 675 
Q 2931 909 2931 1356 
Q 2931 1769 2642 2001 
Q 2353 2234 1838 2234 
L 1294 2234 
L 1294 2753 
L 1863 2753 
Q 2328 2753 2575 2939 
Q 2822 3125 2822 3475 
Q 2822 3834 2567 4026 
Q 2313 4219 1838 4219 
Q 1578 4219 1281 4162 
Q 984 4106 628 3988 
L 628 4550 
Q 988 4650 1302 4700 
Q 1616 4750 1894 4750 
Q 2613 4750 3031 4423 
Q 3450 4097 3450 3541 
Q 3450 3153 3228 2886 
Q 3006 2619 2597 2516 
z
" id="DejaVuSans-33" transform="scale(0.015625)"/>
       </defs>
       <use xlink:href="#DejaVuSans-33"/>
      </g>
     </g>
    </g>
    <g id="xtick_5">
     <g id="line2d_9">
      <path clip-path="url(#pf22618ab81)" d="M 454.681608 640.8 
L 454.681608 86.4 
" style="fill:none;stroke:#b0b0b0;stroke-linecap:square;stroke-width:0.8;"/>
     </g>
     <g id="line2d_10">
      <g>
       <use style="stroke:#000000;stroke-width:0.8;" x="454.681608" xlink:href="#mb1cf0280ec" y="640.8"/>
      </g>
     </g>
     <g id="text_5">
      <!-- 4 -->
      <g transform="translate(451.500358 655.398438)scale(0.1 -0.1)">
       <defs>
        <path d="M 2419 4116 
L 825 1625 
L 2419 1625 
L 2419 4116 
z
M 2253 4666 
L 3047 4666 
L 3047 1625 
L 3713 1625 
L 3713 1100 
L 3047 1100 
L 3047 0 
L 2419 0 
L 2419 1100 
L 313 1100 
L 313 1709 
L 2253 4666 
z
" id="DejaVuSans-34" transform="scale(0.015625)"/>
       </defs>
       <use xlink:href="#DejaVuSans-34"/>
      </g>
     </g>
    </g>
    <g id="xtick_6">
     <g id="line2d_11">
      <path clip-path="url(#pf22618ab81)" d="M 522.206556 640.8 
L 522.206556 86.4 
" style="fill:none;stroke:#b0b0b0;stroke-linecap:square;stroke-width:0.8;"/>
     </g>
     <g id="line2d_12">
      <g>
       <use style="stroke:#000000;stroke-width:0.8;" x="522.206556" xlink:href="#mb1cf0280ec" y="640.8"/>
      </g>
     </g>
     <g id="text_6">
      <!-- 5 -->
      <g transform="translate(519.025306 655.398438)scale(0.1 -0.1)">
       <defs>
        <path d="M 691 4666 
L 3169 4666 
L 3169 4134 
L 1269 4134 
L 1269 2991 
Q 1406 3038 1543 3061 
Q 1681 3084 1819 3084 
Q 2600 3084 3056 2656 
Q 3513 2228 3513 1497 
Q 3513 744 3044 326 
Q 2575 -91 1722 -91 
Q 1428 -91 1123 -41 
Q 819 9 494 109 
L 494 744 
Q 775 591 1075 516 
Q 1375 441 1709 441 
Q 2250 441 2565 725 
Q 2881 1009 2881 1497 
Q 2881 1984 2565 2268 
Q 2250 2553 1709 2553 
Q 1456 2553 1204 2497 
Q 953 2441 691 2322 
L 691 4666 
z
" id="DejaVuSans-35" transform="scale(0.015625)"/>
       </defs>
       <use xlink:href="#DejaVuSans-35"/>
      </g>
     </g>
    </g>
    <g id="xtick_7">
     <g id="line2d_13">
      <path clip-path="url(#pf22618ab81)" d="M 589.731503 640.8 
L 589.731503 86.4 
" style="fill:none;stroke:#b0b0b0;stroke-linecap:square;stroke-width:0.8;"/>
     </g>
     <g id="line2d_14">
      <g>
       <use style="stroke:#000000;stroke-width:0.8;" x="589.731503" xlink:href="#mb1cf0280ec" y="640.8"/>
      </g>
     </g>
     <g id="text_7">
      <!-- 6 -->
      <g transform="translate(586.550253 655.398438)scale(0.1 -0.1)">
       <defs>
        <path d="M 2113 2584 
Q 1688 2584 1439 2293 
Q 1191 2003 1191 1497 
Q 1191 994 1439 701 
Q 1688 409 2113 409 
Q 2538 409 2786 701 
Q 3034 994 3034 1497 
Q 3034 2003 2786 2293 
Q 2538 2584 2113 2584 
z
M 3366 4563 
L 3366 3988 
Q 3128 4100 2886 4159 
Q 2644 4219 2406 4219 
Q 1781 4219 1451 3797 
Q 1122 3375 1075 2522 
Q 1259 2794 1537 2939 
Q 1816 3084 2150 3084 
Q 2853 3084 3261 2657 
Q 3669 2231 3669 1497 
Q 3669 778 3244 343 
Q 2819 -91 2113 -91 
Q 1303 -91 875 529 
Q 447 1150 447 2328 
Q 447 3434 972 4092 
Q 1497 4750 2381 4750 
Q 2619 4750 2861 4703 
Q 3103 4656 3366 4563 
z
" id="DejaVuSans-36" transform="scale(0.015625)"/>
       </defs>
       <use xlink:href="#DejaVuSans-36"/>
      </g>
     </g>
    </g>
    <g id="xtick_8">
     <g id="line2d_15">
      <path clip-path="url(#pf22618ab81)" d="M 657.25645 640.8 
L 657.25645 86.4 
" style="fill:none;stroke:#b0b0b0;stroke-linecap:square;stroke-width:0.8;"/>
     </g>
     <g id="line2d_16">
      <g>
       <use style="stroke:#000000;stroke-width:0.8;" x="657.25645" xlink:href="#mb1cf0280ec" y="640.8"/>
      </g>
     </g>
     <g id="text_8">
      <!-- 7 -->
      <g transform="translate(654.0752 655.398438)scale(0.1 -0.1)">
       <defs>
        <path d="M 525 4666 
L 3525 4666 
L 3525 4397 
L 1831 0 
L 1172 0 
L 2766 4134 
L 525 4134 
L 525 4666 
z
" id="DejaVuSans-37" transform="scale(0.015625)"/>
       </defs>
       <use xlink:href="#DejaVuSans-37"/>
      </g>
     </g>
    </g>
    <g id="xtick_9">
     <g id="line2d_17">
      <path clip-path="url(#pf22618ab81)" d="M 724.781398 640.8 
L 724.781398 86.4 
" style="fill:none;stroke:#b0b0b0;stroke-linecap:square;stroke-width:0.8;"/>
     </g>
     <g id="line2d_18">
      <g>
       <use style="stroke:#000000;stroke-width:0.8;" x="724.781398" xlink:href="#mb1cf0280ec" y="640.8"/>
      </g>
     </g>
     <g id="text_9">
      <!-- 8 -->
      <g transform="translate(721.600148 655.398438)scale(0.1 -0.1)">
       <defs>
        <path d="M 2034 2216 
Q 1584 2216 1326 1975 
Q 1069 1734 1069 1313 
Q 1069 891 1326 650 
Q 1584 409 2034 409 
Q 2484 409 2743 651 
Q 3003 894 3003 1313 
Q 3003 1734 2745 1975 
Q 2488 2216 2034 2216 
z
M 1403 2484 
Q 997 2584 770 2862 
Q 544 3141 544 3541 
Q 544 4100 942 4425 
Q 1341 4750 2034 4750 
Q 2731 4750 3128 4425 
Q 3525 4100 3525 3541 
Q 3525 3141 3298 2862 
Q 3072 2584 2669 2484 
Q 3125 2378 3379 2068 
Q 3634 1759 3634 1313 
Q 3634 634 3220 271 
Q 2806 -91 2034 -91 
Q 1263 -91 848 271 
Q 434 634 434 1313 
Q 434 1759 690 2068 
Q 947 2378 1403 2484 
z
M 1172 3481 
Q 1172 3119 1398 2916 
Q 1625 2713 2034 2713 
Q 2441 2713 2670 2916 
Q 2900 3119 2900 3481 
Q 2900 3844 2670 4047 
Q 2441 4250 2034 4250 
Q 1625 4250 1398 4047 
Q 1172 3844 1172 3481 
z
" id="DejaVuSans-38" transform="scale(0.015625)"/>
       </defs>
       <use xlink:href="#DejaVuSans-38"/>
      </g>
     </g>
    </g>
    <g id="xtick_10">
     <g id="line2d_19">
      <path clip-path="url(#pf22618ab81)" d="M 792.306345 640.8 
L 792.306345 86.4 
" style="fill:none;stroke:#b0b0b0;stroke-linecap:square;stroke-width:0.8;"/>
     </g>
     <g id="line2d_20">
      <g>
       <use style="stroke:#000000;stroke-width:0.8;" x="792.306345" xlink:href="#mb1cf0280ec" y="640.8"/>
      </g>
     </g>
     <g id="text_10">
      <!-- 9 -->
      <g transform="translate(789.125095 655.398438)scale(0.1 -0.1)">
       <defs>
        <path d="M 703 97 
L 703 672 
Q 941 559 1184 500 
Q 1428 441 1663 441 
Q 2288 441 2617 861 
Q 2947 1281 2994 2138 
Q 2813 1869 2534 1725 
Q 2256 1581 1919 1581 
Q 1219 1581 811 2004 
Q 403 2428 403 3163 
Q 403 3881 828 4315 
Q 1253 4750 1959 4750 
Q 2769 4750 3195 4129 
Q 3622 3509 3622 2328 
Q 3622 1225 3098 567 
Q 2575 -91 1691 -91 
Q 1453 -91 1209 -44 
Q 966 3 703 97 
z
M 1959 2075 
Q 2384 2075 2632 2365 
Q 2881 2656 2881 3163 
Q 2881 3666 2632 3958 
Q 2384 4250 1959 4250 
Q 1534 4250 1286 3958 
Q 1038 3666 1038 3163 
Q 1038 2656 1286 2365 
Q 1534 2075 1959 2075 
z
" id="DejaVuSans-39" transform="scale(0.015625)"/>
       </defs>
       <use xlink:href="#DejaVuSans-39"/>
      </g>
     </g>
    </g>
    <g id="xtick_11">
     <g id="line2d_21">
      <path clip-path="url(#pf22618ab81)" d="M 859.831293 640.8 
L 859.831293 86.4 
" style="fill:none;stroke:#b0b0b0;stroke-linecap:square;stroke-width:0.8;"/>
     </g>
     <g id="line2d_22">
      <g>
       <use style="stroke:#000000;stroke-width:0.8;" x="859.831293" xlink:href="#mb1cf0280ec" y="640.8"/>
      </g>
     </g>
     <g id="text_11">
      <!-- 10 -->
      <g transform="translate(853.468793 655.398438)scale(0.1 -0.1)">
       <use xlink:href="#DejaVuSans-31"/>
       <use x="63.623047" xlink:href="#DejaVuSans-30"/>
      </g>
     </g>
    </g>
    <g id="xtick_12">
     <g id="line2d_23">
      <path clip-path="url(#pf22618ab81)" d="M 927.35624 640.8 
L 927.35624 86.4 
" style="fill:none;stroke:#b0b0b0;stroke-linecap:square;stroke-width:0.8;"/>
     </g>
     <g id="line2d_24">
      <g>
       <use style="stroke:#000000;stroke-width:0.8;" x="927.35624" xlink:href="#mb1cf0280ec" y="640.8"/>
      </g>
     </g>
     <g id="text_12">
      <!-- 11 -->
      <g transform="translate(920.99374 655.398438)scale(0.1 -0.1)">
       <use xlink:href="#DejaVuSans-31"/>
       <use x="63.623047" xlink:href="#DejaVuSans-31"/>
      </g>
     </g>
    </g>
    <g id="xtick_13">
     <g id="line2d_25">
      <path clip-path="url(#pf22618ab81)" d="M 994.881188 640.8 
L 994.881188 86.4 
" style="fill:none;stroke:#b0b0b0;stroke-linecap:square;stroke-width:0.8;"/>
     </g>
     <g id="line2d_26">
      <g>
       <use style="stroke:#000000;stroke-width:0.8;" x="994.881188" xlink:href="#mb1cf0280ec" y="640.8"/>
      </g>
     </g>
     <g id="text_13">
      <!-- 12 -->
      <g transform="translate(988.518688 655.398438)scale(0.1 -0.1)">
       <use xlink:href="#DejaVuSans-31"/>
       <use x="63.623047" xlink:href="#DejaVuSans-32"/>
      </g>
     </g>
    </g>
    <g id="xtick_14">
     <g id="line2d_27">
      <defs>
       <path d="M 0 0 
L 0 2 
" id="mcaa735e3e8" style="stroke:#000000;stroke-width:0.6;"/>
      </defs>
      <g>
       <use style="stroke:#000000;stroke-width:0.6;" x="144.06685" xlink:href="#mcaa735e3e8" y="640.8"/>
      </g>
     </g>
    </g>
    <g id="xtick_15">
     <g id="line2d_28">
      <g>
       <use style="stroke:#000000;stroke-width:0.6;" x="157.571839" xlink:href="#mcaa735e3e8" y="640.8"/>
      </g>
     </g>
    </g>
    <g id="xtick_16">
     <g id="line2d_29">
      <g>
       <use style="stroke:#000000;stroke-width:0.6;" x="171.076829" xlink:href="#mcaa735e3e8" y="640.8"/>
      </g>
     </g>
    </g>
    <g id="xtick_17">
     <g id="line2d_30">
      <g>
       <use style="stroke:#000000;stroke-width:0.6;" x="198.086808" xlink:href="#mcaa735e3e8" y="640.8"/>
      </g>
     </g>
    </g>
    <g id="xtick_18">
     <g id="line2d_31">
      <g>
       <use style="stroke:#000000;stroke-width:0.6;" x="211.591797" xlink:href="#mcaa735e3e8" y="640.8"/>
      </g>
     </g>
    </g>
    <g id="xtick_19">
     <g id="line2d_32">
      <g>
       <use style="stroke:#000000;stroke-width:0.6;" x="225.096787" xlink:href="#mcaa735e3e8" y="640.8"/>
      </g>
     </g>
    </g>
    <g id="xtick_20">
     <g id="line2d_33">
      <g>
       <use style="stroke:#000000;stroke-width:0.6;" x="238.601776" xlink:href="#mcaa735e3e8" y="640.8"/>
      </g>
     </g>
    </g>
    <g id="xtick_21">
     <g id="line2d_34">
      <g>
       <use style="stroke:#000000;stroke-width:0.6;" x="265.611755" xlink:href="#mcaa735e3e8" y="640.8"/>
      </g>
     </g>
    </g>
    <g id="xtick_22">
     <g id="line2d_35">
      <g>
       <use style="stroke:#000000;stroke-width:0.6;" x="279.116745" xlink:href="#mcaa735e3e8" y="640.8"/>
      </g>
     </g>
    </g>
    <g id="xtick_23">
     <g id="line2d_36">
      <g>
       <use style="stroke:#000000;stroke-width:0.6;" x="292.621734" xlink:href="#mcaa735e3e8" y="640.8"/>
      </g>
     </g>
    </g>
    <g id="xtick_24">
     <g id="line2d_37">
      <g>
       <use style="stroke:#000000;stroke-width:0.6;" x="306.126724" xlink:href="#mcaa735e3e8" y="640.8"/>
      </g>
     </g>
    </g>
    <g id="xtick_25">
     <g id="line2d_38">
      <g>
       <use style="stroke:#000000;stroke-width:0.6;" x="333.136703" xlink:href="#mcaa735e3e8" y="640.8"/>
      </g>
     </g>
    </g>
    <g id="xtick_26">
     <g id="line2d_39">
      <g>
       <use style="stroke:#000000;stroke-width:0.6;" x="346.641692" xlink:href="#mcaa735e3e8" y="640.8"/>
      </g>
     </g>
    </g>
    <g id="xtick_27">
     <g id="line2d_40">
      <g>
       <use style="stroke:#000000;stroke-width:0.6;" x="360.146682" xlink:href="#mcaa735e3e8" y="640.8"/>
      </g>
     </g>
    </g>
    <g id="xtick_28">
     <g id="line2d_41">
      <g>
       <use style="stroke:#000000;stroke-width:0.6;" x="373.651671" xlink:href="#mcaa735e3e8" y="640.8"/>
      </g>
     </g>
    </g>
    <g id="xtick_29">
     <g id="line2d_42">
      <g>
       <use style="stroke:#000000;stroke-width:0.6;" x="400.66165" xlink:href="#mcaa735e3e8" y="640.8"/>
      </g>
     </g>
    </g>
    <g id="xtick_30">
     <g id="line2d_43">
      <g>
       <use style="stroke:#000000;stroke-width:0.6;" x="414.16664" xlink:href="#mcaa735e3e8" y="640.8"/>
      </g>
     </g>
    </g>
    <g id="xtick_31">
     <g id="line2d_44">
      <g>
       <use style="stroke:#000000;stroke-width:0.6;" x="427.671629" xlink:href="#mcaa735e3e8" y="640.8"/>
      </g>
     </g>
    </g>
    <g id="xtick_32">
     <g id="line2d_45">
      <g>
       <use style="stroke:#000000;stroke-width:0.6;" x="441.176619" xlink:href="#mcaa735e3e8" y="640.8"/>
      </g>
     </g>
    </g>
    <g id="xtick_33">
     <g id="line2d_46">
      <g>
       <use style="stroke:#000000;stroke-width:0.6;" x="468.186598" xlink:href="#mcaa735e3e8" y="640.8"/>
      </g>
     </g>
    </g>
    <g id="xtick_34">
     <g id="line2d_47">
      <g>
       <use style="stroke:#000000;stroke-width:0.6;" x="481.691587" xlink:href="#mcaa735e3e8" y="640.8"/>
      </g>
     </g>
    </g>
    <g id="xtick_35">
     <g id="line2d_48">
      <g>
       <use style="stroke:#000000;stroke-width:0.6;" x="495.196577" xlink:href="#mcaa735e3e8" y="640.8"/>
      </g>
     </g>
    </g>
    <g id="xtick_36">
     <g id="line2d_49">
      <g>
       <use style="stroke:#000000;stroke-width:0.6;" x="508.701566" xlink:href="#mcaa735e3e8" y="640.8"/>
      </g>
     </g>
    </g>
    <g id="xtick_37">
     <g id="line2d_50">
      <g>
       <use style="stroke:#000000;stroke-width:0.6;" x="535.711545" xlink:href="#mcaa735e3e8" y="640.8"/>
      </g>
     </g>
    </g>
    <g id="xtick_38">
     <g id="line2d_51">
      <g>
       <use style="stroke:#000000;stroke-width:0.6;" x="549.216535" xlink:href="#mcaa735e3e8" y="640.8"/>
      </g>
     </g>
    </g>
    <g id="xtick_39">
     <g id="line2d_52">
      <g>
       <use style="stroke:#000000;stroke-width:0.6;" x="562.721524" xlink:href="#mcaa735e3e8" y="640.8"/>
      </g>
     </g>
    </g>
    <g id="xtick_40">
     <g id="line2d_53">
      <g>
       <use style="stroke:#000000;stroke-width:0.6;" x="576.226514" xlink:href="#mcaa735e3e8" y="640.8"/>
      </g>
     </g>
    </g>
    <g id="xtick_41">
     <g id="line2d_54">
      <g>
       <use style="stroke:#000000;stroke-width:0.6;" x="603.236493" xlink:href="#mcaa735e3e8" y="640.8"/>
      </g>
     </g>
    </g>
    <g id="xtick_42">
     <g id="line2d_55">
      <g>
       <use style="stroke:#000000;stroke-width:0.6;" x="616.741482" xlink:href="#mcaa735e3e8" y="640.8"/>
      </g>
     </g>
    </g>
    <g id="xtick_43">
     <g id="line2d_56">
      <g>
       <use style="stroke:#000000;stroke-width:0.6;" x="630.246472" xlink:href="#mcaa735e3e8" y="640.8"/>
      </g>
     </g>
    </g>
    <g id="xtick_44">
     <g id="line2d_57">
      <g>
       <use style="stroke:#000000;stroke-width:0.6;" x="643.751461" xlink:href="#mcaa735e3e8" y="640.8"/>
      </g>
     </g>
    </g>
    <g id="xtick_45">
     <g id="line2d_58">
      <g>
       <use style="stroke:#000000;stroke-width:0.6;" x="670.76144" xlink:href="#mcaa735e3e8" y="640.8"/>
      </g>
     </g>
    </g>
    <g id="xtick_46">
     <g id="line2d_59">
      <g>
       <use style="stroke:#000000;stroke-width:0.6;" x="684.266429" xlink:href="#mcaa735e3e8" y="640.8"/>
      </g>
     </g>
    </g>
    <g id="xtick_47">
     <g id="line2d_60">
      <g>
       <use style="stroke:#000000;stroke-width:0.6;" x="697.771419" xlink:href="#mcaa735e3e8" y="640.8"/>
      </g>
     </g>
    </g>
    <g id="xtick_48">
     <g id="line2d_61">
      <g>
       <use style="stroke:#000000;stroke-width:0.6;" x="711.276408" xlink:href="#mcaa735e3e8" y="640.8"/>
      </g>
     </g>
    </g>
    <g id="xtick_49">
     <g id="line2d_62">
      <g>
       <use style="stroke:#000000;stroke-width:0.6;" x="738.286387" xlink:href="#mcaa735e3e8" y="640.8"/>
      </g>
     </g>
    </g>
    <g id="xtick_50">
     <g id="line2d_63">
      <g>
       <use style="stroke:#000000;stroke-width:0.6;" x="751.791377" xlink:href="#mcaa735e3e8" y="640.8"/>
      </g>
     </g>
    </g>
    <g id="xtick_51">
     <g id="line2d_64">
      <g>
       <use style="stroke:#000000;stroke-width:0.6;" x="765.296366" xlink:href="#mcaa735e3e8" y="640.8"/>
      </g>
     </g>
    </g>
    <g id="xtick_52">
     <g id="line2d_65">
      <g>
       <use style="stroke:#000000;stroke-width:0.6;" x="778.801356" xlink:href="#mcaa735e3e8" y="640.8"/>
      </g>
     </g>
    </g>
    <g id="xtick_53">
     <g id="line2d_66">
      <g>
       <use style="stroke:#000000;stroke-width:0.6;" x="805.811335" xlink:href="#mcaa735e3e8" y="640.8"/>
      </g>
     </g>
    </g>
    <g id="xtick_54">
     <g id="line2d_67">
      <g>
       <use style="stroke:#000000;stroke-width:0.6;" x="819.316324" xlink:href="#mcaa735e3e8" y="640.8"/>
      </g>
     </g>
    </g>
    <g id="xtick_55">
     <g id="line2d_68">
      <g>
       <use style="stroke:#000000;stroke-width:0.6;" x="832.821314" xlink:href="#mcaa735e3e8" y="640.8"/>
      </g>
     </g>
    </g>
    <g id="xtick_56">
     <g id="line2d_69">
      <g>
       <use style="stroke:#000000;stroke-width:0.6;" x="846.326303" xlink:href="#mcaa735e3e8" y="640.8"/>
      </g>
     </g>
    </g>
    <g id="xtick_57">
     <g id="line2d_70">
      <g>
       <use style="stroke:#000000;stroke-width:0.6;" x="873.336282" xlink:href="#mcaa735e3e8" y="640.8"/>
      </g>
     </g>
    </g>
    <g id="xtick_58">
     <g id="line2d_71">
      <g>
       <use style="stroke:#000000;stroke-width:0.6;" x="886.841272" xlink:href="#mcaa735e3e8" y="640.8"/>
      </g>
     </g>
    </g>
    <g id="xtick_59">
     <g id="line2d_72">
      <g>
       <use style="stroke:#000000;stroke-width:0.6;" x="900.346261" xlink:href="#mcaa735e3e8" y="640.8"/>
      </g>
     </g>
    </g>
    <g id="xtick_60">
     <g id="line2d_73">
      <g>
       <use style="stroke:#000000;stroke-width:0.6;" x="913.851251" xlink:href="#mcaa735e3e8" y="640.8"/>
      </g>
     </g>
    </g>
    <g id="xtick_61">
     <g id="line2d_74">
      <g>
       <use style="stroke:#000000;stroke-width:0.6;" x="940.86123" xlink:href="#mcaa735e3e8" y="640.8"/>
      </g>
     </g>
    </g>
    <g id="xtick_62">
     <g id="line2d_75">
      <g>
       <use style="stroke:#000000;stroke-width:0.6;" x="954.366219" xlink:href="#mcaa735e3e8" y="640.8"/>
      </g>
     </g>
    </g>
    <g id="xtick_63">
     <g id="line2d_76">
      <g>
       <use style="stroke:#000000;stroke-width:0.6;" x="967.871209" xlink:href="#mcaa735e3e8" y="640.8"/>
      </g>
     </g>
    </g>
    <g id="xtick_64">
     <g id="line2d_77">
      <g>
       <use style="stroke:#000000;stroke-width:0.6;" x="981.376198" xlink:href="#mcaa735e3e8" y="640.8"/>
      </g>
     </g>
    </g>
    <g id="xtick_65">
     <g id="line2d_78">
      <g>
       <use style="stroke:#000000;stroke-width:0.6;" x="1008.386177" xlink:href="#mcaa735e3e8" y="640.8"/>
      </g>
     </g>
    </g>
    <g id="xtick_66">
     <g id="line2d_79">
      <g>
       <use style="stroke:#000000;stroke-width:0.6;" x="1021.891167" xlink:href="#mcaa735e3e8" y="640.8"/>
      </g>
     </g>
    </g>
    <g id="xtick_67">
     <g id="line2d_80">
      <g>
       <use style="stroke:#000000;stroke-width:0.6;" x="1035.396156" xlink:href="#mcaa735e3e8" y="640.8"/>
      </g>
     </g>
    </g>
    <g id="text_14">
     <!-- Время, с -->
     <g transform="translate(568.011719 669.076563)scale(0.1 -0.1)">
      <defs>
       <path d="M 1259 2228 
L 1259 519 
L 2272 519 
Q 2781 519 3026 730 
Q 3272 941 3272 1375 
Q 3272 1813 3026 2020 
Q 2781 2228 2272 2228 
L 1259 2228 
z
M 1259 4147 
L 1259 2741 
L 2194 2741 
Q 2656 2741 2882 2914 
Q 3109 3088 3109 3444 
Q 3109 3797 2882 3972 
Q 2656 4147 2194 4147 
L 1259 4147 
z
M 628 4666 
L 2241 4666 
Q 2963 4666 3353 4366 
Q 3744 4066 3744 3513 
Q 3744 3084 3544 2831 
Q 3344 2578 2956 2516 
Q 3422 2416 3680 2098 
Q 3938 1781 3938 1306 
Q 3938 681 3513 340 
Q 3088 0 2303 0 
L 628 0 
L 628 4666 
z
" id="DejaVuSans-412" transform="scale(0.015625)"/>
       <path d="M 1159 525 
L 1159 -1331 
L 581 -1331 
L 581 3500 
L 1159 3500 
L 1159 2969 
Q 1341 3281 1617 3432 
Q 1894 3584 2278 3584 
Q 2916 3584 3314 3078 
Q 3713 2572 3713 1747 
Q 3713 922 3314 415 
Q 2916 -91 2278 -91 
Q 1894 -91 1617 61 
Q 1341 213 1159 525 
z
M 3116 1747 
Q 3116 2381 2855 2742 
Q 2594 3103 2138 3103 
Q 1681 3103 1420 2742 
Q 1159 2381 1159 1747 
Q 1159 1113 1420 752 
Q 1681 391 2138 391 
Q 2594 391 2855 752 
Q 3116 1113 3116 1747 
z
" id="DejaVuSans-440" transform="scale(0.015625)"/>
       <path d="M 3597 1894 
L 3597 1613 
L 953 1613 
Q 991 1019 1311 708 
Q 1631 397 2203 397 
Q 2534 397 2845 478 
Q 3156 559 3463 722 
L 3463 178 
Q 3153 47 2828 -22 
Q 2503 -91 2169 -91 
Q 1331 -91 842 396 
Q 353 884 353 1716 
Q 353 2575 817 3079 
Q 1281 3584 2069 3584 
Q 2775 3584 3186 3129 
Q 3597 2675 3597 1894 
z
M 3022 2063 
Q 3016 2534 2758 2815 
Q 2500 3097 2075 3097 
Q 1594 3097 1305 2825 
Q 1016 2553 972 2059 
L 3022 2063 
z
" id="DejaVuSans-435" transform="scale(0.015625)"/>
       <path d="M 581 3500 
L 1422 3500 
L 2416 1156 
L 3413 3500 
L 4247 3500 
L 4247 0 
L 3669 0 
L 3669 2950 
L 2703 672 
L 2128 672 
L 1159 2950 
L 1159 0 
L 581 0 
L 581 3500 
z
" id="DejaVuSans-43c" transform="scale(0.015625)"/>
       <path d="M 1181 2491 
Q 1181 2231 1381 2084 
Q 1581 1938 1953 1938 
L 2728 1938 
L 2728 3041 
L 1953 3041 
Q 1581 3041 1381 2897 
Q 1181 2753 1181 2491 
z
M 363 0 
L 1431 1534 
Q 1069 1616 828 1830 
Q 588 2044 588 2491 
Q 588 2997 923 3248 
Q 1259 3500 1938 3500 
L 3306 3500 
L 3306 0 
L 2728 0 
L 2728 1478 
L 2013 1478 
L 981 0 
L 363 0 
z
" id="DejaVuSans-44f" transform="scale(0.015625)"/>
       <path d="M 750 794 
L 1409 794 
L 1409 256 
L 897 -744 
L 494 -744 
L 750 256 
L 750 794 
z
" id="DejaVuSans-2c" transform="scale(0.015625)"/>
       <path id="DejaVuSans-20" transform="scale(0.015625)"/>
       <path d="M 3122 3366 
L 3122 2828 
Q 2878 2963 2633 3030 
Q 2388 3097 2138 3097 
Q 1578 3097 1268 2742 
Q 959 2388 959 1747 
Q 959 1106 1268 751 
Q 1578 397 2138 397 
Q 2388 397 2633 464 
Q 2878 531 3122 666 
L 3122 134 
Q 2881 22 2623 -34 
Q 2366 -91 2075 -91 
Q 1284 -91 818 406 
Q 353 903 353 1747 
Q 353 2603 823 3093 
Q 1294 3584 2113 3584 
Q 2378 3584 2631 3529 
Q 2884 3475 3122 3366 
z
" id="DejaVuSans-441" transform="scale(0.015625)"/>
      </defs>
      <use xlink:href="#DejaVuSans-412"/>
      <use x="68.603516" xlink:href="#DejaVuSans-440"/>
      <use x="132.080078" xlink:href="#DejaVuSans-435"/>
      <use x="193.603516" xlink:href="#DejaVuSans-43c"/>
      <use x="269.042969" xlink:href="#DejaVuSans-44f"/>
      <use x="329.199219" xlink:href="#DejaVuSans-2c"/>
      <use x="360.986328" xlink:href="#DejaVuSans-20"/>
      <use x="392.773438" xlink:href="#DejaVuSans-441"/>
     </g>
    </g>
   </g>
   <g id="matplotlib.axis_2">
    <g id="ytick_1">
     <g id="line2d_81">
      <path clip-path="url(#pf22618ab81)" d="M 144 617.64878 
L 1036.8 617.64878 
" style="fill:none;stroke:#b0b0b0;stroke-linecap:square;stroke-width:0.8;"/>
     </g>
     <g id="line2d_82">
      <defs>
       <path d="M 0 0 
L -3.5 0 
" id="m768f3f3dcd" style="stroke:#000000;stroke-width:0.8;"/>
      </defs>
      <g>
       <use style="stroke:#000000;stroke-width:0.8;" x="144" xlink:href="#m768f3f3dcd" y="617.64878"/>
      </g>
     </g>
     <g id="text_15">
      <!-- 0.00 -->
      <g transform="translate(114.734375 621.447999)scale(0.1 -0.1)">
       <defs>
        <path d="M 684 794 
L 1344 794 
L 1344 0 
L 684 0 
L 684 794 
z
" id="DejaVuSans-2e" transform="scale(0.015625)"/>
       </defs>
       <use xlink:href="#DejaVuSans-30"/>
       <use x="63.623047" xlink:href="#DejaVuSans-2e"/>
       <use x="95.410156" xlink:href="#DejaVuSans-30"/>
       <use x="159.033203" xlink:href="#DejaVuSans-30"/>
      </g>
     </g>
    </g>
    <g id="ytick_2">
     <g id="line2d_83">
      <path clip-path="url(#pf22618ab81)" d="M 144 571.085588 
L 1036.8 571.085588 
" style="fill:none;stroke:#b0b0b0;stroke-linecap:square;stroke-width:0.8;"/>
     </g>
     <g id="line2d_84">
      <g>
       <use style="stroke:#000000;stroke-width:0.8;" x="144" xlink:href="#m768f3f3dcd" y="571.085588"/>
      </g>
     </g>
     <g id="text_16">
      <!-- 0.25 -->
      <g transform="translate(114.734375 574.884806)scale(0.1 -0.1)">
       <use xlink:href="#DejaVuSans-30"/>
       <use x="63.623047" xlink:href="#DejaVuSans-2e"/>
       <use x="95.410156" xlink:href="#DejaVuSans-32"/>
       <use x="159.033203" xlink:href="#DejaVuSans-35"/>
      </g>
     </g>
    </g>
    <g id="ytick_3">
     <g id="line2d_85">
      <path clip-path="url(#pf22618ab81)" d="M 144 524.522395 
L 1036.8 524.522395 
" style="fill:none;stroke:#b0b0b0;stroke-linecap:square;stroke-width:0.8;"/>
     </g>
     <g id="line2d_86">
      <g>
       <use style="stroke:#000000;stroke-width:0.8;" x="144" xlink:href="#m768f3f3dcd" y="524.522395"/>
      </g>
     </g>
     <g id="text_17">
      <!-- 0.50 -->
      <g transform="translate(114.734375 528.321613)scale(0.1 -0.1)">
       <use xlink:href="#DejaVuSans-30"/>
       <use x="63.623047" xlink:href="#DejaVuSans-2e"/>
       <use x="95.410156" xlink:href="#DejaVuSans-35"/>
       <use x="159.033203" xlink:href="#DejaVuSans-30"/>
      </g>
     </g>
    </g>
    <g id="ytick_4">
     <g id="line2d_87">
      <path clip-path="url(#pf22618ab81)" d="M 144 477.959202 
L 1036.8 477.959202 
" style="fill:none;stroke:#b0b0b0;stroke-linecap:square;stroke-width:0.8;"/>
     </g>
     <g id="line2d_88">
      <g>
       <use style="stroke:#000000;stroke-width:0.8;" x="144" xlink:href="#m768f3f3dcd" y="477.959202"/>
      </g>
     </g>
     <g id="text_18">
      <!-- 0.75 -->
      <g transform="translate(114.734375 481.758421)scale(0.1 -0.1)">
       <use xlink:href="#DejaVuSans-30"/>
       <use x="63.623047" xlink:href="#DejaVuSans-2e"/>
       <use x="95.410156" xlink:href="#DejaVuSans-37"/>
       <use x="159.033203" xlink:href="#DejaVuSans-35"/>
      </g>
     </g>
    </g>
    <g id="ytick_5">
     <g id="line2d_89">
      <path clip-path="url(#pf22618ab81)" d="M 144 431.396009 
L 1036.8 431.396009 
" style="fill:none;stroke:#b0b0b0;stroke-linecap:square;stroke-width:0.8;"/>
     </g>
     <g id="line2d_90">
      <g>
       <use style="stroke:#000000;stroke-width:0.8;" x="144" xlink:href="#m768f3f3dcd" y="431.396009"/>
      </g>
     </g>
     <g id="text_19">
      <!-- 1.00 -->
      <g transform="translate(114.734375 435.195228)scale(0.1 -0.1)">
       <use xlink:href="#DejaVuSans-31"/>
       <use x="63.623047" xlink:href="#DejaVuSans-2e"/>
       <use x="95.410156" xlink:href="#DejaVuSans-30"/>
       <use x="159.033203" xlink:href="#DejaVuSans-30"/>
      </g>
     </g>
    </g>
    <g id="ytick_6">
     <g id="line2d_91">
      <path clip-path="url(#pf22618ab81)" d="M 144 384.832816 
L 1036.8 384.832816 
" style="fill:none;stroke:#b0b0b0;stroke-linecap:square;stroke-width:0.8;"/>
     </g>
     <g id="line2d_92">
      <g>
       <use style="stroke:#000000;stroke-width:0.8;" x="144" xlink:href="#m768f3f3dcd" y="384.832816"/>
      </g>
     </g>
     <g id="text_20">
      <!-- 1.25 -->
      <g transform="translate(114.734375 388.632035)scale(0.1 -0.1)">
       <use xlink:href="#DejaVuSans-31"/>
       <use x="63.623047" xlink:href="#DejaVuSans-2e"/>
       <use x="95.410156" xlink:href="#DejaVuSans-32"/>
       <use x="159.033203" xlink:href="#DejaVuSans-35"/>
      </g>
     </g>
    </g>
    <g id="ytick_7">
     <g id="line2d_93">
      <path clip-path="url(#pf22618ab81)" d="M 144 338.269623 
L 1036.8 338.269623 
" style="fill:none;stroke:#b0b0b0;stroke-linecap:square;stroke-width:0.8;"/>
     </g>
     <g id="line2d_94">
      <g>
       <use style="stroke:#000000;stroke-width:0.8;" x="144" xlink:href="#m768f3f3dcd" y="338.269623"/>
      </g>
     </g>
     <g id="text_21">
      <!-- 1.50 -->
      <g transform="translate(114.734375 342.068842)scale(0.1 -0.1)">
       <use xlink:href="#DejaVuSans-31"/>
       <use x="63.623047" xlink:href="#DejaVuSans-2e"/>
       <use x="95.410156" xlink:href="#DejaVuSans-35"/>
       <use x="159.033203" xlink:href="#DejaVuSans-30"/>
      </g>
     </g>
    </g>
    <g id="ytick_8">
     <g id="line2d_95">
      <path clip-path="url(#pf22618ab81)" d="M 144 291.70643 
L 1036.8 291.70643 
" style="fill:none;stroke:#b0b0b0;stroke-linecap:square;stroke-width:0.8;"/>
     </g>
     <g id="line2d_96">
      <g>
       <use style="stroke:#000000;stroke-width:0.8;" x="144" xlink:href="#m768f3f3dcd" y="291.70643"/>
      </g>
     </g>
     <g id="text_22">
      <!-- 1.75 -->
      <g transform="translate(114.734375 295.505649)scale(0.1 -0.1)">
       <use xlink:href="#DejaVuSans-31"/>
       <use x="63.623047" xlink:href="#DejaVuSans-2e"/>
       <use x="95.410156" xlink:href="#DejaVuSans-37"/>
       <use x="159.033203" xlink:href="#DejaVuSans-35"/>
      </g>
     </g>
    </g>
    <g id="ytick_9">
     <g id="line2d_97">
      <path clip-path="url(#pf22618ab81)" d="M 144 245.143237 
L 1036.8 245.143237 
" style="fill:none;stroke:#b0b0b0;stroke-linecap:square;stroke-width:0.8;"/>
     </g>
     <g id="line2d_98">
      <g>
       <use style="stroke:#000000;stroke-width:0.8;" x="144" xlink:href="#m768f3f3dcd" y="245.143237"/>
      </g>
     </g>
     <g id="text_23">
      <!-- 2.00 -->
      <g transform="translate(114.734375 248.942456)scale(0.1 -0.1)">
       <use xlink:href="#DejaVuSans-32"/>
       <use x="63.623047" xlink:href="#DejaVuSans-2e"/>
       <use x="95.410156" xlink:href="#DejaVuSans-30"/>
       <use x="159.033203" xlink:href="#DejaVuSans-30"/>
      </g>
     </g>
    </g>
    <g id="ytick_10">
     <g id="line2d_99">
      <path clip-path="url(#pf22618ab81)" d="M 144 198.580044 
L 1036.8 198.580044 
" style="fill:none;stroke:#b0b0b0;stroke-linecap:square;stroke-width:0.8;"/>
     </g>
     <g id="line2d_100">
      <g>
       <use style="stroke:#000000;stroke-width:0.8;" x="144" xlink:href="#m768f3f3dcd" y="198.580044"/>
      </g>
     </g>
     <g id="text_24">
      <!-- 2.25 -->
      <g transform="translate(114.734375 202.379263)scale(0.1 -0.1)">
       <use xlink:href="#DejaVuSans-32"/>
       <use x="63.623047" xlink:href="#DejaVuSans-2e"/>
       <use x="95.410156" xlink:href="#DejaVuSans-32"/>
       <use x="159.033203" xlink:href="#DejaVuSans-35"/>
      </g>
     </g>
    </g>
    <g id="ytick_11">
     <g id="line2d_101">
      <path clip-path="url(#pf22618ab81)" d="M 144 152.016851 
L 1036.8 152.016851 
" style="fill:none;stroke:#b0b0b0;stroke-linecap:square;stroke-width:0.8;"/>
     </g>
     <g id="line2d_102">
      <g>
       <use style="stroke:#000000;stroke-width:0.8;" x="144" xlink:href="#m768f3f3dcd" y="152.016851"/>
      </g>
     </g>
     <g id="text_25">
      <!-- 2.50 -->
      <g transform="translate(114.734375 155.81607)scale(0.1 -0.1)">
       <use xlink:href="#DejaVuSans-32"/>
       <use x="63.623047" xlink:href="#DejaVuSans-2e"/>
       <use x="95.410156" xlink:href="#DejaVuSans-35"/>
       <use x="159.033203" xlink:href="#DejaVuSans-30"/>
      </g>
     </g>
    </g>
    <g id="ytick_12">
     <g id="line2d_103">
      <path clip-path="url(#pf22618ab81)" d="M 144 105.453659 
L 1036.8 105.453659 
" style="fill:none;stroke:#b0b0b0;stroke-linecap:square;stroke-width:0.8;"/>
     </g>
     <g id="line2d_104">
      <g>
       <use style="stroke:#000000;stroke-width:0.8;" x="144" xlink:href="#m768f3f3dcd" y="105.453659"/>
      </g>
     </g>
     <g id="text_26">
      <!-- 2.75 -->
      <g transform="translate(114.734375 109.252877)scale(0.1 -0.1)">
       <use xlink:href="#DejaVuSans-32"/>
       <use x="63.623047" xlink:href="#DejaVuSans-2e"/>
       <use x="95.410156" xlink:href="#DejaVuSans-37"/>
       <use x="159.033203" xlink:href="#DejaVuSans-35"/>
      </g>
     </g>
    </g>
    <g id="ytick_13">
     <g id="line2d_105">
      <defs>
       <path d="M 0 0 
L -2 0 
" id="me8e4e05b74" style="stroke:#000000;stroke-width:0.6;"/>
      </defs>
      <g>
       <use style="stroke:#000000;stroke-width:0.6;" x="144" xlink:href="#me8e4e05b74" y="636.274058"/>
      </g>
     </g>
    </g>
    <g id="ytick_14">
     <g id="line2d_106">
      <g>
       <use style="stroke:#000000;stroke-width:0.6;" x="144" xlink:href="#me8e4e05b74" y="626.961419"/>
      </g>
     </g>
    </g>
    <g id="ytick_15">
     <g id="line2d_107">
      <g>
       <use style="stroke:#000000;stroke-width:0.6;" x="144" xlink:href="#me8e4e05b74" y="608.336142"/>
      </g>
     </g>
    </g>
    <g id="ytick_16">
     <g id="line2d_108">
      <g>
       <use style="stroke:#000000;stroke-width:0.6;" x="144" xlink:href="#me8e4e05b74" y="599.023503"/>
      </g>
     </g>
    </g>
    <g id="ytick_17">
     <g id="line2d_109">
      <g>
       <use style="stroke:#000000;stroke-width:0.6;" x="144" xlink:href="#me8e4e05b74" y="589.710865"/>
      </g>
     </g>
    </g>
    <g id="ytick_18">
     <g id="line2d_110">
      <g>
       <use style="stroke:#000000;stroke-width:0.6;" x="144" xlink:href="#me8e4e05b74" y="580.398226"/>
      </g>
     </g>
    </g>
    <g id="ytick_19">
     <g id="line2d_111">
      <g>
       <use style="stroke:#000000;stroke-width:0.6;" x="144" xlink:href="#me8e4e05b74" y="561.772949"/>
      </g>
     </g>
    </g>
    <g id="ytick_20">
     <g id="line2d_112">
      <g>
       <use style="stroke:#000000;stroke-width:0.6;" x="144" xlink:href="#me8e4e05b74" y="552.46031"/>
      </g>
     </g>
    </g>
    <g id="ytick_21">
     <g id="line2d_113">
      <g>
       <use style="stroke:#000000;stroke-width:0.6;" x="144" xlink:href="#me8e4e05b74" y="543.147672"/>
      </g>
     </g>
    </g>
    <g id="ytick_22">
     <g id="line2d_114">
      <g>
       <use style="stroke:#000000;stroke-width:0.6;" x="144" xlink:href="#me8e4e05b74" y="533.835033"/>
      </g>
     </g>
    </g>
    <g id="ytick_23">
     <g id="line2d_115">
      <g>
       <use style="stroke:#000000;stroke-width:0.6;" x="144" xlink:href="#me8e4e05b74" y="515.209756"/>
      </g>
     </g>
    </g>
    <g id="ytick_24">
     <g id="line2d_116">
      <g>
       <use style="stroke:#000000;stroke-width:0.6;" x="144" xlink:href="#me8e4e05b74" y="505.897118"/>
      </g>
     </g>
    </g>
    <g id="ytick_25">
     <g id="line2d_117">
      <g>
       <use style="stroke:#000000;stroke-width:0.6;" x="144" xlink:href="#me8e4e05b74" y="496.584479"/>
      </g>
     </g>
    </g>
    <g id="ytick_26">
     <g id="line2d_118">
      <g>
       <use style="stroke:#000000;stroke-width:0.6;" x="144" xlink:href="#me8e4e05b74" y="487.27184"/>
      </g>
     </g>
    </g>
    <g id="ytick_27">
     <g id="line2d_119">
      <g>
       <use style="stroke:#000000;stroke-width:0.6;" x="144" xlink:href="#me8e4e05b74" y="468.646563"/>
      </g>
     </g>
    </g>
    <g id="ytick_28">
     <g id="line2d_120">
      <g>
       <use style="stroke:#000000;stroke-width:0.6;" x="144" xlink:href="#me8e4e05b74" y="459.333925"/>
      </g>
     </g>
    </g>
    <g id="ytick_29">
     <g id="line2d_121">
      <g>
       <use style="stroke:#000000;stroke-width:0.6;" x="144" xlink:href="#me8e4e05b74" y="450.021286"/>
      </g>
     </g>
    </g>
    <g id="ytick_30">
     <g id="line2d_122">
      <g>
       <use style="stroke:#000000;stroke-width:0.6;" x="144" xlink:href="#me8e4e05b74" y="440.708647"/>
      </g>
     </g>
    </g>
    <g id="ytick_31">
     <g id="line2d_123">
      <g>
       <use style="stroke:#000000;stroke-width:0.6;" x="144" xlink:href="#me8e4e05b74" y="422.08337"/>
      </g>
     </g>
    </g>
    <g id="ytick_32">
     <g id="line2d_124">
      <g>
       <use style="stroke:#000000;stroke-width:0.6;" x="144" xlink:href="#me8e4e05b74" y="412.770732"/>
      </g>
     </g>
    </g>
    <g id="ytick_33">
     <g id="line2d_125">
      <g>
       <use style="stroke:#000000;stroke-width:0.6;" x="144" xlink:href="#me8e4e05b74" y="403.458093"/>
      </g>
     </g>
    </g>
    <g id="ytick_34">
     <g id="line2d_126">
      <g>
       <use style="stroke:#000000;stroke-width:0.6;" x="144" xlink:href="#me8e4e05b74" y="394.145455"/>
      </g>
     </g>
    </g>
    <g id="ytick_35">
     <g id="line2d_127">
      <g>
       <use style="stroke:#000000;stroke-width:0.6;" x="144" xlink:href="#me8e4e05b74" y="375.520177"/>
      </g>
     </g>
    </g>
    <g id="ytick_36">
     <g id="line2d_128">
      <g>
       <use style="stroke:#000000;stroke-width:0.6;" x="144" xlink:href="#me8e4e05b74" y="366.207539"/>
      </g>
     </g>
    </g>
    <g id="ytick_37">
     <g id="line2d_129">
      <g>
       <use style="stroke:#000000;stroke-width:0.6;" x="144" xlink:href="#me8e4e05b74" y="356.8949"/>
      </g>
     </g>
    </g>
    <g id="ytick_38">
     <g id="line2d_130">
      <g>
       <use style="stroke:#000000;stroke-width:0.6;" x="144" xlink:href="#me8e4e05b74" y="347.582262"/>
      </g>
     </g>
    </g>
    <g id="ytick_39">
     <g id="line2d_131">
      <g>
       <use style="stroke:#000000;stroke-width:0.6;" x="144" xlink:href="#me8e4e05b74" y="328.956984"/>
      </g>
     </g>
    </g>
    <g id="ytick_40">
     <g id="line2d_132">
      <g>
       <use style="stroke:#000000;stroke-width:0.6;" x="144" xlink:href="#me8e4e05b74" y="319.644346"/>
      </g>
     </g>
    </g>
    <g id="ytick_41">
     <g id="line2d_133">
      <g>
       <use style="stroke:#000000;stroke-width:0.6;" x="144" xlink:href="#me8e4e05b74" y="310.331707"/>
      </g>
     </g>
    </g>
    <g id="ytick_42">
     <g id="line2d_134">
      <g>
       <use style="stroke:#000000;stroke-width:0.6;" x="144" xlink:href="#me8e4e05b74" y="301.019069"/>
      </g>
     </g>
    </g>
    <g id="ytick_43">
     <g id="line2d_135">
      <g>
       <use style="stroke:#000000;stroke-width:0.6;" x="144" xlink:href="#me8e4e05b74" y="282.393792"/>
      </g>
     </g>
    </g>
    <g id="ytick_44">
     <g id="line2d_136">
      <g>
       <use style="stroke:#000000;stroke-width:0.6;" x="144" xlink:href="#me8e4e05b74" y="273.081153"/>
      </g>
     </g>
    </g>
    <g id="ytick_45">
     <g id="line2d_137">
      <g>
       <use style="stroke:#000000;stroke-width:0.6;" x="144" xlink:href="#me8e4e05b74" y="263.768514"/>
      </g>
     </g>
    </g>
    <g id="ytick_46">
     <g id="line2d_138">
      <g>
       <use style="stroke:#000000;stroke-width:0.6;" x="144" xlink:href="#me8e4e05b74" y="254.455876"/>
      </g>
     </g>
    </g>
    <g id="ytick_47">
     <g id="line2d_139">
      <g>
       <use style="stroke:#000000;stroke-width:0.6;" x="144" xlink:href="#me8e4e05b74" y="235.830599"/>
      </g>
     </g>
    </g>
    <g id="ytick_48">
     <g id="line2d_140">
      <g>
       <use style="stroke:#000000;stroke-width:0.6;" x="144" xlink:href="#me8e4e05b74" y="226.51796"/>
      </g>
     </g>
    </g>
    <g id="ytick_49">
     <g id="line2d_141">
      <g>
       <use style="stroke:#000000;stroke-width:0.6;" x="144" xlink:href="#me8e4e05b74" y="217.205322"/>
      </g>
     </g>
    </g>
    <g id="ytick_50">
     <g id="line2d_142">
      <g>
       <use style="stroke:#000000;stroke-width:0.6;" x="144" xlink:href="#me8e4e05b74" y="207.892683"/>
      </g>
     </g>
    </g>
    <g id="ytick_51">
     <g id="line2d_143">
      <g>
       <use style="stroke:#000000;stroke-width:0.6;" x="144" xlink:href="#me8e4e05b74" y="189.267406"/>
      </g>
     </g>
    </g>
    <g id="ytick_52">
     <g id="line2d_144">
      <g>
       <use style="stroke:#000000;stroke-width:0.6;" x="144" xlink:href="#me8e4e05b74" y="179.954767"/>
      </g>
     </g>
    </g>
    <g id="ytick_53">
     <g id="line2d_145">
      <g>
       <use style="stroke:#000000;stroke-width:0.6;" x="144" xlink:href="#me8e4e05b74" y="170.642129"/>
      </g>
     </g>
    </g>
    <g id="ytick_54">
     <g id="line2d_146">
      <g>
       <use style="stroke:#000000;stroke-width:0.6;" x="144" xlink:href="#me8e4e05b74" y="161.32949"/>
      </g>
     </g>
    </g>
    <g id="ytick_55">
     <g id="line2d_147">
      <g>
       <use style="stroke:#000000;stroke-width:0.6;" x="144" xlink:href="#me8e4e05b74" y="142.704213"/>
      </g>
     </g>
    </g>
    <g id="ytick_56">
     <g id="line2d_148">
      <g>
       <use style="stroke:#000000;stroke-width:0.6;" x="144" xlink:href="#me8e4e05b74" y="133.391574"/>
      </g>
     </g>
    </g>
    <g id="ytick_57">
     <g id="line2d_149">
      <g>
       <use style="stroke:#000000;stroke-width:0.6;" x="144" xlink:href="#me8e4e05b74" y="124.078936"/>
      </g>
     </g>
    </g>
    <g id="ytick_58">
     <g id="line2d_150">
      <g>
       <use style="stroke:#000000;stroke-width:0.6;" x="144" xlink:href="#me8e4e05b74" y="114.766297"/>
      </g>
     </g>
    </g>
    <g id="ytick_59">
     <g id="line2d_151">
      <g>
       <use style="stroke:#000000;stroke-width:0.6;" x="144" xlink:href="#me8e4e05b74" y="96.14102"/>
      </g>
     </g>
    </g>
    <g id="ytick_60">
     <g id="line2d_152">
      <g>
       <use style="stroke:#000000;stroke-width:0.6;" x="144" xlink:href="#me8e4e05b74" y="86.828381"/>
      </g>
     </g>
    </g>
    <g id="text_27">
     <!-- Напряжение на конденсаторе, В -->
     <g transform="translate(108.654687 450.357031)rotate(-90)scale(0.1 -0.1)">
      <defs>
       <path d="M 628 4666 
L 1259 4666 
L 1259 2753 
L 3553 2753 
L 3553 4666 
L 4184 4666 
L 4184 0 
L 3553 0 
L 3553 2222 
L 1259 2222 
L 1259 0 
L 628 0 
L 628 4666 
z
" id="DejaVuSans-41d" transform="scale(0.015625)"/>
       <path d="M 2194 1759 
Q 1497 1759 1228 1600 
Q 959 1441 959 1056 
Q 959 750 1161 570 
Q 1363 391 1709 391 
Q 2188 391 2477 730 
Q 2766 1069 2766 1631 
L 2766 1759 
L 2194 1759 
z
M 3341 1997 
L 3341 0 
L 2766 0 
L 2766 531 
Q 2569 213 2275 61 
Q 1981 -91 1556 -91 
Q 1019 -91 701 211 
Q 384 513 384 1019 
Q 384 1609 779 1909 
Q 1175 2209 1959 2209 
L 2766 2209 
L 2766 2266 
Q 2766 2663 2505 2880 
Q 2244 3097 1772 3097 
Q 1472 3097 1187 3025 
Q 903 2953 641 2809 
L 641 3341 
Q 956 3463 1253 3523 
Q 1550 3584 1831 3584 
Q 2591 3584 2966 3190 
Q 3341 2797 3341 1997 
z
" id="DejaVuSans-430" transform="scale(0.015625)"/>
       <path d="M 3603 3500 
L 3603 0 
L 3025 0 
L 3025 3041 
L 1159 3041 
L 1159 0 
L 581 0 
L 581 3500 
L 3603 3500 
z
" id="DejaVuSans-43f" transform="scale(0.015625)"/>
       <path d="M 2597 3500 
L 3169 3500 
L 3169 1856 
L 4697 3500 
L 5366 3500 
L 4109 2153 
L 5547 0 
L 4931 0 
L 3753 1769 
L 3169 1141 
L 3169 0 
L 2597 0 
L 2597 1141 
L 2013 1769 
L 834 0 
L 219 0 
L 1656 2153 
L 400 3500 
L 1069 3500 
L 2597 1856 
L 2597 3500 
z
" id="DejaVuSans-436" transform="scale(0.015625)"/>
       <path d="M 581 3500 
L 1159 3500 
L 1159 2072 
L 3025 2072 
L 3025 3500 
L 3603 3500 
L 3603 0 
L 3025 0 
L 3025 1613 
L 1159 1613 
L 1159 0 
L 581 0 
L 581 3500 
z
" id="DejaVuSans-43d" transform="scale(0.015625)"/>
       <path d="M 3578 3500 
L 3578 0 
L 3006 0 
L 3006 2809 
L 1319 0 
L 581 0 
L 581 3500 
L 1153 3500 
L 1153 697 
L 2838 3500 
L 3578 3500 
z
" id="DejaVuSans-438" transform="scale(0.015625)"/>
       <path d="M 581 3500 
L 1153 3500 
L 1153 1856 
L 2775 3500 
L 3481 3500 
L 2144 2147 
L 3653 0 
L 3009 0 
L 1769 1766 
L 1153 1141 
L 1153 0 
L 581 0 
L 581 3500 
z
" id="DejaVuSans-43a" transform="scale(0.015625)"/>
       <path d="M 1959 3097 
Q 1497 3097 1228 2736 
Q 959 2375 959 1747 
Q 959 1119 1226 758 
Q 1494 397 1959 397 
Q 2419 397 2687 759 
Q 2956 1122 2956 1747 
Q 2956 2369 2687 2733 
Q 2419 3097 1959 3097 
z
M 1959 3584 
Q 2709 3584 3137 3096 
Q 3566 2609 3566 1747 
Q 3566 888 3137 398 
Q 2709 -91 1959 -91 
Q 1206 -91 779 398 
Q 353 888 353 1747 
Q 353 2609 779 3096 
Q 1206 3584 1959 3584 
z
" id="DejaVuSans-43e" transform="scale(0.015625)"/>
       <path d="M 1384 459 
L 3053 459 
L 3053 3041 
L 1844 3041 
L 1844 2603 
Q 1844 1316 1475 628 
L 1384 459 
z
M 550 459 
Q 834 584 959 850 
Q 1266 1509 1266 2838 
L 1266 3500 
L 3631 3500 
L 3631 459 
L 4091 459 
L 4091 -884 
L 3631 -884 
L 3631 0 
L 794 0 
L 794 -884 
L 334 -884 
L 334 459 
L 550 459 
z
" id="DejaVuSans-434" transform="scale(0.015625)"/>
       <path d="M 188 3500 
L 3541 3500 
L 3541 3041 
L 2147 3041 
L 2147 0 
L 1581 0 
L 1581 3041 
L 188 3041 
L 188 3500 
z
" id="DejaVuSans-442" transform="scale(0.015625)"/>
      </defs>
      <use xlink:href="#DejaVuSans-41d"/>
      <use x="75.195312" xlink:href="#DejaVuSans-430"/>
      <use x="136.474609" xlink:href="#DejaVuSans-43f"/>
      <use x="201.855469" xlink:href="#DejaVuSans-440"/>
      <use x="265.332031" xlink:href="#DejaVuSans-44f"/>
      <use x="325.488281" xlink:href="#DejaVuSans-436"/>
      <use x="415.576172" xlink:href="#DejaVuSans-435"/>
      <use x="477.099609" xlink:href="#DejaVuSans-43d"/>
      <use x="542.480469" xlink:href="#DejaVuSans-438"/>
      <use x="607.470703" xlink:href="#DejaVuSans-435"/>
      <use x="668.994141" xlink:href="#DejaVuSans-20"/>
      <use x="700.78125" xlink:href="#DejaVuSans-43d"/>
      <use x="766.162109" xlink:href="#DejaVuSans-430"/>
      <use x="827.441406" xlink:href="#DejaVuSans-20"/>
      <use x="859.228516" xlink:href="#DejaVuSans-43a"/>
      <use x="919.628906" xlink:href="#DejaVuSans-43e"/>
      <use x="980.810547" xlink:href="#DejaVuSans-43d"/>
      <use x="1046.191406" xlink:href="#DejaVuSans-434"/>
      <use x="1115.332031" xlink:href="#DejaVuSans-435"/>
      <use x="1176.855469" xlink:href="#DejaVuSans-43d"/>
      <use x="1242.236328" xlink:href="#DejaVuSans-441"/>
      <use x="1297.216797" xlink:href="#DejaVuSans-430"/>
      <use x="1358.496094" xlink:href="#DejaVuSans-442"/>
      <use x="1416.748047" xlink:href="#DejaVuSans-43e"/>
      <use x="1477.929688" xlink:href="#DejaVuSans-440"/>
      <use x="1541.40625" xlink:href="#DejaVuSans-435"/>
      <use x="1602.929688" xlink:href="#DejaVuSans-2c"/>
      <use x="1634.716797" xlink:href="#DejaVuSans-20"/>
      <use x="1666.503906" xlink:href="#DejaVuSans-412"/>
     </g>
    </g>
   </g>
   <g id="line2d_153">
    <path clip-path="url(#pf22618ab81)" d="M 184.581818 615.6 
L 185.486652 607.404878 
L 188.201155 595.112195 
L 189.10599 586.917073 
L 190.915658 578.721951 
L 191.820493 570.526829 
L 192.725327 570.526829 
L 193.630161 562.331707 
L 194.534995 562.331707 
L 195.43983 554.136585 
L 196.344664 554.136585 
L 197.249498 541.843902 
L 209.012344 488.57561 
L 209.917178 488.57561 
L 210.822013 480.380488 
L 214.44135 463.990244 
L 215.346184 463.990244 
L 216.251019 455.795122 
L 217.155853 455.795122 
L 224.394527 423.014634 
L 225.299362 423.014634 
L 228.918699 406.62439 
L 229.823533 406.62439 
L 233.44287 390.234146 
L 234.347704 390.234146 
L 236.157373 382.039024 
L 237.062207 382.039024 
L 238.871876 373.843902 
L 239.77671 373.843902 
L 241.586379 365.64878 
L 242.491213 365.64878 
L 244.300882 357.453659 
L 246.11055 357.453659 
L 247.015385 349.258537 
L 247.920219 349.258537 
L 248.825053 345.160976 
L 249.729888 345.160976 
L 251.539556 336.965854 
L 252.44439 336.965854 
L 253.349225 332.868293 
L 254.254059 332.868293 
L 256.063728 324.673171 
L 257.873396 324.673171 
L 259.683065 316.478049 
L 261.492733 316.478049 
L 263.302402 308.282927 
L 264.207236 308.282927 
L 265.112071 304.185366 
L 266.016905 304.185366 
L 266.921739 300.087805 
L 267.826573 300.087805 
L 268.731408 295.990244 
L 269.636242 295.990244 
L 270.541076 291.892683 
L 273.255579 291.892683 
L 274.160413 283.697561 
L 275.970082 283.697561 
L 276.874916 279.6 
L 277.779751 279.6 
L 278.684585 275.502439 
L 280.494254 275.502439 
L 281.399088 271.404878 
L 282.303922 271.404878 
L 283.208756 267.307317 
L 284.113591 267.307317 
L 285.018425 263.209756 
L 287.732928 263.209756 
L 289.542597 255.014634 
L 291.352265 255.014634 
L 292.257099 250.917073 
L 294.066768 250.917073 
L 294.971602 246.819512 
L 295.876437 246.819512 
L 296.781271 242.721951 
L 299.495774 242.721951 
L 300.400608 238.62439 
L 301.305442 238.62439 
L 302.210277 234.526829 
L 304.019945 234.526829 
L 304.92478 230.429268 
L 307.639282 230.429268 
L 309.448951 222.234146 
L 314.877957 222.234146 
L 316.687625 214.039024 
L 320.306963 214.039024 
L 321.211797 209.941463 
L 323.9263 209.941463 
L 324.831134 205.843902 
L 326.640803 205.843902 
L 327.545637 201.746341 
L 329.355306 201.746341 
L 330.26014 197.64878 
L 333.879477 197.64878 
L 334.784311 193.55122 
L 338.403649 193.55122 
L 339.308483 189.453659 
L 342.92782 189.453659 
L 343.832654 185.356098 
L 347.451991 185.356098 
L 348.356826 181.258537 
L 350.166494 181.258537 
L 351.071329 177.160976 
L 351.976163 181.258537 
L 352.880997 177.160976 
L 355.5955 177.160976 
L 356.500334 173.063415 
L 362.834175 173.063415 
L 363.739009 168.965854 
L 368.26318 168.965854 
L 369.168015 164.868293 
L 373.692186 164.868293 
L 374.59702 160.770732 
L 378.216358 160.770732 
L 379.121192 156.673171 
L 389.074369 156.673171 
L 389.979203 152.57561 
L 397.217878 152.57561 
L 398.122712 148.478049 
L 399.027546 152.57561 
L 399.932381 148.478049 
L 404.456552 148.478049 
L 405.361386 144.380488 
L 406.266221 148.478049 
L 407.171055 144.380488 
L 415.314564 144.380488 
L 416.219398 140.282927 
L 424.362907 140.282927 
L 425.267741 136.185366 
L 433.41125 136.185366 
L 434.316084 132.087805 
L 435.220918 136.185366 
L 436.125753 136.185366 
L 437.030587 132.087805 
L 445.174095 132.087805 
L 446.07893 127.990244 
L 446.983764 132.087805 
L 447.888598 132.087805 
L 448.793433 127.990244 
L 449.698267 132.087805 
L 450.603101 132.087805 
L 451.507936 127.990244 
L 458.74661 127.990244 
L 459.651444 123.892683 
L 460.556279 127.990244 
L 461.461113 127.990244 
L 462.365947 123.892683 
L 463.270781 123.892683 
L 464.175616 127.990244 
L 466.890119 127.990244 
L 467.794953 123.892683 
L 484.986804 123.892683 
L 485.891639 119.795122 
L 486.796473 123.892683 
L 487.701307 119.795122 
L 507.607662 119.795122 
L 508.512496 115.697561 
L 509.41733 115.697561 
L 510.322165 119.795122 
L 511.226999 119.795122 
L 512.131833 115.697561 
L 513.036668 115.697561 
L 513.941502 119.795122 
L 514.846336 115.697561 
L 530.228519 115.697561 
L 531.133354 111.6 
L 532.038188 119.795122 
L 532.943022 123.892683 
L 533.847856 123.892683 
L 534.752691 132.087805 
L 536.562359 140.282927 
L 537.467194 148.478049 
L 538.372028 148.478049 
L 539.276862 156.673171 
L 540.181697 156.673171 
L 541.086531 164.868293 
L 542.896199 173.063415 
L 543.801034 173.063415 
L 544.705868 181.258537 
L 545.610702 181.258537 
L 554.659045 222.234146 
L 555.56388 222.234146 
L 560.088051 242.721951 
L 560.992885 242.721951 
L 561.89772 250.917073 
L 562.802554 250.917073 
L 563.707388 255.014634 
L 564.612223 255.014634 
L 569.136394 275.502439 
L 570.041228 275.502439 
L 573.660566 291.892683 
L 574.5654 291.892683 
L 576.375068 300.087805 
L 577.279903 300.087805 
L 578.184737 304.185366 
L 579.089571 304.185366 
L 581.804074 316.478049 
L 582.708908 316.478049 
L 583.613743 320.57561 
L 584.518577 320.57561 
L 586.328246 328.770732 
L 587.23308 328.770732 
L 589.042749 336.965854 
L 589.947583 336.965854 
L 590.852417 341.063415 
L 591.757251 341.063415 
L 592.662086 345.160976 
L 593.56692 345.160976 
L 594.471754 349.258537 
L 595.376589 349.258537 
L 596.281423 353.356098 
L 597.186257 353.356098 
L 598.091092 357.453659 
L 598.995926 357.453659 
L 599.90076 361.55122 
L 600.805594 361.55122 
L 602.615263 369.746341 
L 604.424932 369.746341 
L 605.329766 373.843902 
L 606.2346 373.843902 
L 607.139434 377.941463 
L 608.044269 377.941463 
L 609.853937 386.136585 
L 611.663606 386.136585 
L 612.56844 390.234146 
L 613.473275 390.234146 
L 614.378109 394.331707 
L 615.282943 394.331707 
L 616.187777 398.429268 
L 617.092612 398.429268 
L 617.997446 402.526829 
L 619.807115 402.526829 
L 620.711949 406.62439 
L 621.616783 406.62439 
L 622.521618 410.721951 
L 623.426452 410.721951 
L 624.331286 414.819512 
L 625.23612 414.819512 
L 626.140955 418.917073 
L 628.855458 418.917073 
L 630.665126 427.112195 
L 632.474795 427.112195 
L 633.379629 431.209756 
L 634.284463 431.209756 
L 635.189298 435.307317 
L 637.903801 435.307317 
L 638.808635 439.404878 
L 639.713469 439.404878 
L 640.618303 443.502439 
L 642.427972 443.502439 
L 643.332806 447.6 
L 644.237641 447.6 
L 645.142475 451.697561 
L 646.952144 451.697561 
L 647.856978 455.795122 
L 650.571481 455.795122 
L 651.476315 459.892683 
L 653.285984 459.892683 
L 654.190818 463.990244 
L 656.000486 463.990244 
L 656.905321 468.087805 
L 659.619824 468.087805 
L 660.524658 472.185366 
L 661.429492 472.185366 
L 662.334327 476.282927 
L 665.048829 476.282927 
L 665.953664 480.380488 
L 667.763332 480.380488 
L 668.668167 484.478049 
L 669.573001 484.478049 
L 670.477835 488.57561 
L 675.906841 488.57561 
L 676.811675 492.673171 
L 678.621344 492.673171 
L 679.526178 496.770732 
L 681.335847 496.770732 
L 682.240681 500.868293 
L 685.860018 500.868293 
L 686.764853 504.965854 
L 689.479355 504.965854 
L 690.38419 509.063415 
L 692.193858 509.063415 
L 693.098693 513.160976 
L 696.71803 513.160976 
L 697.622864 517.258537 
L 701.242201 517.258537 
L 702.147036 521.356098 
L 703.05187 517.258537 
L 703.956704 521.356098 
L 705.766373 521.356098 
L 706.671207 525.453659 
L 710.290544 525.453659 
L 711.195379 529.55122 
L 714.814716 529.55122 
L 715.71955 533.64878 
L 719.338887 533.64878 
L 720.243721 537.746341 
L 725.672727 537.746341 
L 726.577562 541.843902 
L 730.196899 541.843902 
L 731.101733 545.941463 
L 734.72107 545.941463 
L 735.625905 550.039024 
L 736.530739 545.941463 
L 737.435573 550.039024 
L 740.150076 550.039024 
L 741.05491 554.136585 
L 750.103253 554.136585 
L 751.008088 558.234146 
L 757.341928 558.234146 
L 758.246762 562.331707 
L 762.770933 562.331707 
L 763.675768 566.429268 
L 771.819276 566.429268 
L 772.724111 570.526829 
L 781.772454 570.526829 
L 782.677288 574.62439 
L 789.915962 574.62439 
L 790.820797 578.721951 
L 791.725631 574.62439 
L 792.630465 578.721951 
L 802.583642 578.721951 
L 803.488477 582.819512 
L 811.631985 582.819512 
L 812.53682 586.917073 
L 827.014168 586.917073 
L 827.919003 591.014634 
L 842.396351 591.014634 
L 843.301186 595.112195 
L 844.20602 591.014634 
L 845.110854 595.112195 
L 859.588203 595.112195 
L 860.493037 599.209756 
L 879.494558 599.209756 
L 880.399392 603.307317 
L 881.304226 599.209756 
L 884.018729 599.209756 
L 884.923563 603.307317 
L 885.828398 603.307317 
L 886.733232 599.209756 
L 887.638066 603.307317 
L 905.734752 603.307317 
L 906.639587 607.404878 
L 907.544421 603.307317 
L 914.783095 603.307317 
L 915.687929 607.404878 
L 917.497598 607.404878 
L 918.402432 603.307317 
L 919.307267 607.404878 
L 943.737793 607.404878 
L 944.642627 611.502439 
L 945.547461 607.404878 
L 947.35713 607.404878 
L 948.261964 611.502439 
L 995.313348 611.502439 
L 996.218182 615.6 
L 996.218182 615.6 
" style="fill:none;stroke:#ff0000;stroke-linecap:square;stroke-width:1.5;"/>
    <defs>
     <path d="M 0 3 
C 0.795609 3 1.55874 2.683901 2.12132 2.12132 
C 2.683901 1.55874 3 0.795609 3 0 
C 3 -0.795609 2.683901 -1.55874 2.12132 -2.12132 
C 1.55874 -2.683901 0.795609 -3 0 -3 
C -0.795609 -3 -1.55874 -2.683901 -2.12132 -2.12132 
C -2.683901 -1.55874 -3 -0.795609 -3 0 
C -3 0.795609 -2.683901 1.55874 -2.12132 2.12132 
C -1.55874 2.683901 -0.795609 3 0 3 
z
" id="m9b72541b2e" style="stroke:#ff0000;"/>
    </defs>
    <g clip-path="url(#pf22618ab81)">
     <use style="fill:#ff0000;stroke:#ff0000;" x="184.581818" xlink:href="#m9b72541b2e" y="615.6"/>
     <use style="fill:#ff0000;stroke:#ff0000;" x="211.726847" xlink:href="#m9b72541b2e" y="476.282927"/>
     <use style="fill:#ff0000;stroke:#ff0000;" x="238.871876" xlink:href="#m9b72541b2e" y="373.843902"/>
     <use style="fill:#ff0000;stroke:#ff0000;" x="266.016905" xlink:href="#m9b72541b2e" y="304.185366"/>
     <use style="fill:#ff0000;stroke:#ff0000;" x="293.161934" xlink:href="#m9b72541b2e" y="250.917073"/>
     <use style="fill:#ff0000;stroke:#ff0000;" x="320.306963" xlink:href="#m9b72541b2e" y="214.039024"/>
     <use style="fill:#ff0000;stroke:#ff0000;" x="347.451991" xlink:href="#m9b72541b2e" y="185.356098"/>
     <use style="fill:#ff0000;stroke:#ff0000;" x="374.59702" xlink:href="#m9b72541b2e" y="160.770732"/>
     <use style="fill:#ff0000;stroke:#ff0000;" x="401.742049" xlink:href="#m9b72541b2e" y="148.478049"/>
     <use style="fill:#ff0000;stroke:#ff0000;" x="428.887078" xlink:href="#m9b72541b2e" y="136.185366"/>
     <use style="fill:#ff0000;stroke:#ff0000;" x="456.032107" xlink:href="#m9b72541b2e" y="127.990244"/>
     <use style="fill:#ff0000;stroke:#ff0000;" x="483.177136" xlink:href="#m9b72541b2e" y="123.892683"/>
     <use style="fill:#ff0000;stroke:#ff0000;" x="510.322165" xlink:href="#m9b72541b2e" y="119.795122"/>
     <use style="fill:#ff0000;stroke:#ff0000;" x="537.467194" xlink:href="#m9b72541b2e" y="148.478049"/>
     <use style="fill:#ff0000;stroke:#ff0000;" x="564.612223" xlink:href="#m9b72541b2e" y="255.014634"/>
     <use style="fill:#ff0000;stroke:#ff0000;" x="591.757251" xlink:href="#m9b72541b2e" y="341.063415"/>
     <use style="fill:#ff0000;stroke:#ff0000;" x="618.90228" xlink:href="#m9b72541b2e" y="402.526829"/>
     <use style="fill:#ff0000;stroke:#ff0000;" x="646.047309" xlink:href="#m9b72541b2e" y="451.697561"/>
     <use style="fill:#ff0000;stroke:#ff0000;" x="673.192338" xlink:href="#m9b72541b2e" y="488.57561"/>
     <use style="fill:#ff0000;stroke:#ff0000;" x="700.337367" xlink:href="#m9b72541b2e" y="517.258537"/>
     <use style="fill:#ff0000;stroke:#ff0000;" x="727.482396" xlink:href="#m9b72541b2e" y="541.843902"/>
     <use style="fill:#ff0000;stroke:#ff0000;" x="754.627425" xlink:href="#m9b72541b2e" y="558.234146"/>
     <use style="fill:#ff0000;stroke:#ff0000;" x="781.772454" xlink:href="#m9b72541b2e" y="570.526829"/>
     <use style="fill:#ff0000;stroke:#ff0000;" x="808.917483" xlink:href="#m9b72541b2e" y="582.819512"/>
     <use style="fill:#ff0000;stroke:#ff0000;" x="836.062511" xlink:href="#m9b72541b2e" y="591.014634"/>
     <use style="fill:#ff0000;stroke:#ff0000;" x="863.20754" xlink:href="#m9b72541b2e" y="599.209756"/>
     <use style="fill:#ff0000;stroke:#ff0000;" x="890.352569" xlink:href="#m9b72541b2e" y="603.307317"/>
     <use style="fill:#ff0000;stroke:#ff0000;" x="917.497598" xlink:href="#m9b72541b2e" y="607.404878"/>
     <use style="fill:#ff0000;stroke:#ff0000;" x="944.642627" xlink:href="#m9b72541b2e" y="611.502439"/>
     <use style="fill:#ff0000;stroke:#ff0000;" x="971.787656" xlink:href="#m9b72541b2e" y="611.502439"/>
    </g>
   </g>
   <g id="patch_3">
    <path d="M 144 640.8 
L 144 86.4 
" style="fill:none;stroke:#000000;stroke-linecap:square;stroke-linejoin:miter;stroke-width:0.8;"/>
   </g>
   <g id="patch_4">
    <path d="M 1036.8 640.8 
L 1036.8 86.4 
" style="fill:none;stroke:#000000;stroke-linecap:square;stroke-linejoin:miter;stroke-width:0.8;"/>
   </g>
   <g id="patch_5">
    <path d="M 144 640.8 
L 1036.8 640.8 
" style="fill:none;stroke:#000000;stroke-linecap:square;stroke-linejoin:miter;stroke-width:0.8;"/>
   </g>
   <g id="patch_6">
    <path d="M 144 86.4 
L 1036.8 86.4 
" style="fill:none;stroke:#000000;stroke-linecap:square;stroke-linejoin:miter;stroke-width:0.8;"/>
   </g>
   <g id="text_28">
    <!-- Время зарядки: 5.1322 -->
    <g transform="translate(657.25645 338.269623)scale(0.1 -0.1)">
     <defs>
      <path d="M 2206 1888 
Q 2594 1813 2809 1584 
Q 3025 1356 3025 1019 
Q 3025 478 2622 193 
Q 2219 -91 1475 -91 
Q 1225 -91 961 -47 
Q 697 -3 416 84 
L 416 619 
Q 638 503 903 445 
Q 1169 388 1459 388 
Q 1931 388 2195 563 
Q 2459 738 2459 1019 
Q 2459 1294 2225 1461 
Q 1991 1628 1563 1628 
L 1100 1628 
L 1100 2103 
L 1584 2103 
Q 1947 2103 2158 2242 
Q 2369 2381 2369 2600 
Q 2369 2800 2151 2944 
Q 1934 3088 1563 3088 
Q 1341 3088 1089 3047 
Q 838 3006 534 2916 
L 534 3438 
Q 841 3513 1106 3550 
Q 1372 3588 1609 3588 
Q 2222 3588 2576 3342 
Q 2931 3097 2931 2656 
Q 2931 2366 2743 2164 
Q 2556 1963 2206 1888 
z
" id="DejaVuSans-437" transform="scale(0.015625)"/>
      <path d="M 750 794 
L 1409 794 
L 1409 0 
L 750 0 
L 750 794 
z
M 750 3309 
L 1409 3309 
L 1409 2516 
L 750 2516 
L 750 3309 
z
" id="DejaVuSans-3a" transform="scale(0.015625)"/>
     </defs>
     <use xlink:href="#DejaVuSans-412"/>
     <use x="68.603516" xlink:href="#DejaVuSans-440"/>
     <use x="132.080078" xlink:href="#DejaVuSans-435"/>
     <use x="193.603516" xlink:href="#DejaVuSans-43c"/>
     <use x="269.042969" xlink:href="#DejaVuSans-44f"/>
     <use x="329.199219" xlink:href="#DejaVuSans-20"/>
     <use x="360.986328" xlink:href="#DejaVuSans-437"/>
     <use x="414.160156" xlink:href="#DejaVuSans-430"/>
     <use x="475.439453" xlink:href="#DejaVuSans-440"/>
     <use x="538.916016" xlink:href="#DejaVuSans-44f"/>
     <use x="599.072266" xlink:href="#DejaVuSans-434"/>
     <use x="668.212891" xlink:href="#DejaVuSans-43a"/>
     <use x="728.613281" xlink:href="#DejaVuSans-438"/>
     <use x="793.603516" xlink:href="#DejaVuSans-3a"/>
     <use x="827.294922" xlink:href="#DejaVuSans-20"/>
     <use x="859.082031" xlink:href="#DejaVuSans-35"/>
     <use x="922.705078" xlink:href="#DejaVuSans-2e"/>
     <use x="954.492188" xlink:href="#DejaVuSans-31"/>
     <use x="1018.115234" xlink:href="#DejaVuSans-33"/>
     <use x="1081.738281" xlink:href="#DejaVuSans-32"/>
     <use x="1145.361328" xlink:href="#DejaVuSans-32"/>
    </g>
   </g>
   <g id="text_29">
    <!-- Время разраядки: 6.917800000000001 -->
    <g transform="translate(657.25645 245.143237)scale(0.1 -0.1)">
     <use xlink:href="#DejaVuSans-412"/>
     <use x="68.603516" xlink:href="#DejaVuSans-440"/>
     <use x="132.080078" xlink:href="#DejaVuSans-435"/>
     <use x="193.603516" xlink:href="#DejaVuSans-43c"/>
     <use x="269.042969" xlink:href="#DejaVuSans-44f"/>
     <use x="329.199219" xlink:href="#DejaVuSans-20"/>
     <use x="360.986328" xlink:href="#DejaVuSans-440"/>
     <use x="424.462891" xlink:href="#DejaVuSans-430"/>
     <use x="485.742188" xlink:href="#DejaVuSans-437"/>
     <use x="538.916016" xlink:href="#DejaVuSans-440"/>
     <use x="602.392578" xlink:href="#DejaVuSans-430"/>
     <use x="663.671875" xlink:href="#DejaVuSans-44f"/>
     <use x="723.828125" xlink:href="#DejaVuSans-434"/>
     <use x="792.96875" xlink:href="#DejaVuSans-43a"/>
     <use x="853.369141" xlink:href="#DejaVuSans-438"/>
     <use x="918.359375" xlink:href="#DejaVuSans-3a"/>
     <use x="952.050781" xlink:href="#DejaVuSans-20"/>
     <use x="983.837891" xlink:href="#DejaVuSans-36"/>
     <use x="1047.460938" xlink:href="#DejaVuSans-2e"/>
     <use x="1079.248047" xlink:href="#DejaVuSans-39"/>
     <use x="1142.871094" xlink:href="#DejaVuSans-31"/>
     <use x="1206.494141" xlink:href="#DejaVuSans-37"/>
     <use x="1270.117188" xlink:href="#DejaVuSans-38"/>
     <use x="1333.740234" xlink:href="#DejaVuSans-30"/>
     <use x="1397.363281" xlink:href="#DejaVuSans-30"/>
     <use x="1460.986328" xlink:href="#DejaVuSans-30"/>
     <use x="1524.609375" xlink:href="#DejaVuSans-30"/>
     <use x="1588.232422" xlink:href="#DejaVuSans-30"/>
     <use x="1651.855469" xlink:href="#DejaVuSans-30"/>
     <use x="1715.478516" xlink:href="#DejaVuSans-30"/>
     <use x="1779.101562" xlink:href="#DejaVuSans-30"/>
     <use x="1842.724609" xlink:href="#DejaVuSans-30"/>
     <use x="1906.347656" xlink:href="#DejaVuSans-30"/>
     <use x="1969.970703" xlink:href="#DejaVuSans-31"/>
    </g>
   </g>
   <g id="text_30">
    <!-- Зависимость напряжение от времени в RC-цепи -->
    <g transform="translate(437.029688 80.4)scale(0.12 -0.12)">
     <defs>
      <path d="M 1828 4750 
Q 2597 4750 3084 4423 
Q 3572 4097 3572 3541 
Q 3572 3153 3350 2886 
Q 3128 2619 2719 2516 
Q 3172 2419 3426 2112 
Q 3681 1806 3681 1356 
Q 3681 638 3126 273 
Q 2572 -91 1828 -91 
Q 1447 -91 1003 12 
Q 559 116 422 203 
L 422 853 
Q 900 575 1164 508 
Q 1428 441 1816 441 
Q 2403 441 2728 666 
Q 3053 891 3053 1356 
Q 3053 1769 2764 2001 
Q 2475 2234 1866 2234 
L 1228 2234 
L 1228 2753 
L 1891 2753 
Q 2450 2753 2697 2939 
Q 2944 3125 2944 3475 
Q 2944 3834 2689 4026 
Q 2434 4219 1816 4219 
Q 1397 4219 1253 4181 
Q 1109 4144 469 3903 
L 469 4519 
Q 822 4644 1190 4697 
Q 1559 4750 1828 4750 
z
" id="DejaVuSans-417" transform="scale(0.015625)"/>
      <path d="M 1156 1613 
L 1156 459 
L 1975 459 
Q 2369 459 2575 607 
Q 2781 756 2781 1038 
Q 2781 1319 2575 1466 
Q 2369 1613 1975 1613 
L 1156 1613 
z
M 1156 3041 
L 1156 2072 
L 1913 2072 
Q 2238 2072 2444 2201 
Q 2650 2331 2650 2563 
Q 2650 2794 2444 2917 
Q 2238 3041 1913 3041 
L 1156 3041 
z
M 581 3500 
L 1950 3500 
Q 2566 3500 2897 3275 
Q 3228 3050 3228 2634 
Q 3228 2313 3059 2123 
Q 2891 1934 2559 1888 
Q 2956 1813 3175 1575 
Q 3394 1338 3394 981 
Q 3394 513 3033 256 
Q 2672 0 2003 0 
L 581 0 
L 581 3500 
z
" id="DejaVuSans-432" transform="scale(0.015625)"/>
      <path d="M 2781 1038 
Q 2781 1319 2576 1466 
Q 2372 1613 1978 1613 
L 1159 1613 
L 1159 459 
L 1978 459 
Q 2372 459 2576 607 
Q 2781 756 2781 1038 
z
M 581 3500 
L 1159 3500 
L 1159 2072 
L 2003 2072 
Q 2672 2072 3033 1817 
Q 3394 1563 3394 1038 
Q 3394 513 3033 256 
Q 2672 0 2003 0 
L 581 0 
L 581 3500 
z
" id="DejaVuSans-44c" transform="scale(0.015625)"/>
      <path d="M 2841 2188 
Q 3044 2119 3236 1894 
Q 3428 1669 3622 1275 
L 4263 0 
L 3584 0 
L 2988 1197 
Q 2756 1666 2539 1819 
Q 2322 1972 1947 1972 
L 1259 1972 
L 1259 0 
L 628 0 
L 628 4666 
L 2053 4666 
Q 2853 4666 3247 4331 
Q 3641 3997 3641 3322 
Q 3641 2881 3436 2590 
Q 3231 2300 2841 2188 
z
M 1259 4147 
L 1259 2491 
L 2053 2491 
Q 2509 2491 2742 2702 
Q 2975 2913 2975 3322 
Q 2975 3731 2742 3939 
Q 2509 4147 2053 4147 
L 1259 4147 
z
" id="DejaVuSans-52" transform="scale(0.015625)"/>
      <path d="M 4122 4306 
L 4122 3641 
Q 3803 3938 3442 4084 
Q 3081 4231 2675 4231 
Q 1875 4231 1450 3742 
Q 1025 3253 1025 2328 
Q 1025 1406 1450 917 
Q 1875 428 2675 428 
Q 3081 428 3442 575 
Q 3803 722 4122 1019 
L 4122 359 
Q 3791 134 3420 21 
Q 3050 -91 2638 -91 
Q 1578 -91 968 557 
Q 359 1206 359 2328 
Q 359 3453 968 4101 
Q 1578 4750 2638 4750 
Q 3056 4750 3426 4639 
Q 3797 4528 4122 4306 
z
" id="DejaVuSans-43" transform="scale(0.015625)"/>
      <path d="M 313 2009 
L 1997 2009 
L 1997 1497 
L 313 1497 
L 313 2009 
z
" id="DejaVuSans-2d" transform="scale(0.015625)"/>
      <path d="M 3603 0 
L 581 0 
L 581 3500 
L 1159 3500 
L 1159 459 
L 3025 459 
L 3025 3500 
L 3603 3500 
L 3603 459 
L 4063 459 
L 4063 -884 
L 3603 -884 
L 3603 0 
z
" id="DejaVuSans-446" transform="scale(0.015625)"/>
     </defs>
     <use xlink:href="#DejaVuSans-417"/>
     <use x="64.111328" xlink:href="#DejaVuSans-430"/>
     <use x="125.390625" xlink:href="#DejaVuSans-432"/>
     <use x="184.326172" xlink:href="#DejaVuSans-438"/>
     <use x="249.316406" xlink:href="#DejaVuSans-441"/>
     <use x="304.296875" xlink:href="#DejaVuSans-438"/>
     <use x="369.287109" xlink:href="#DejaVuSans-43c"/>
     <use x="444.726562" xlink:href="#DejaVuSans-43e"/>
     <use x="505.908203" xlink:href="#DejaVuSans-441"/>
     <use x="560.888672" xlink:href="#DejaVuSans-442"/>
     <use x="619.140625" xlink:href="#DejaVuSans-44c"/>
     <use x="678.076172" xlink:href="#DejaVuSans-20"/>
     <use x="709.863281" xlink:href="#DejaVuSans-43d"/>
     <use x="775.244141" xlink:href="#DejaVuSans-430"/>
     <use x="836.523438" xlink:href="#DejaVuSans-43f"/>
     <use x="901.904297" xlink:href="#DejaVuSans-440"/>
     <use x="965.380859" xlink:href="#DejaVuSans-44f"/>
     <use x="1025.537109" xlink:href="#DejaVuSans-436"/>
     <use x="1115.625" xlink:href="#DejaVuSans-435"/>
     <use x="1177.148438" xlink:href="#DejaVuSans-43d"/>
     <use x="1242.529297" xlink:href="#DejaVuSans-438"/>
     <use x="1307.519531" xlink:href="#DejaVuSans-435"/>
     <use x="1369.042969" xlink:href="#DejaVuSans-20"/>
     <use x="1400.830078" xlink:href="#DejaVuSans-43e"/>
     <use x="1462.011719" xlink:href="#DejaVuSans-442"/>
     <use x="1520.263672" xlink:href="#DejaVuSans-20"/>
     <use x="1552.050781" xlink:href="#DejaVuSans-432"/>
     <use x="1610.986328" xlink:href="#DejaVuSans-440"/>
     <use x="1674.462891" xlink:href="#DejaVuSans-435"/>
     <use x="1735.986328" xlink:href="#DejaVuSans-43c"/>
     <use x="1811.425781" xlink:href="#DejaVuSans-435"/>
     <use x="1872.949219" xlink:href="#DejaVuSans-43d"/>
     <use x="1938.330078" xlink:href="#DejaVuSans-438"/>
     <use x="2003.320312" xlink:href="#DejaVuSans-20"/>
     <use x="2035.107422" xlink:href="#DejaVuSans-432"/>
     <use x="2094.042969" xlink:href="#DejaVuSans-20"/>
     <use x="2125.830078" xlink:href="#DejaVuSans-52"/>
     <use x="2190.3125" xlink:href="#DejaVuSans-43"/>
     <use x="2260.136719" xlink:href="#DejaVuSans-2d"/>
     <use x="2296.220703" xlink:href="#DejaVuSans-446"/>
     <use x="2364.287109" xlink:href="#DejaVuSans-435"/>
     <use x="2425.810547" xlink:href="#DejaVuSans-43f"/>
     <use x="2491.191406" xlink:href="#DejaVuSans-438"/>
    </g>
   </g>
   <g id="legend_1">
    <g id="patch_7">
     <path d="M 978.757812 109.078125 
L 1029.8 109.078125 
Q 1031.8 109.078125 1031.8 107.078125 
L 1031.8 93.4 
Q 1031.8 91.4 1029.8 91.4 
L 978.757812 91.4 
Q 976.757812 91.4 976.757812 93.4 
L 976.757812 107.078125 
Q 976.757812 109.078125 978.757812 109.078125 
z
" style="fill:#ffffff;opacity:0.8;stroke:#cccccc;stroke-linejoin:miter;"/>
    </g>
    <g id="line2d_154">
     <path d="M 980.757812 99.498438 
L 1000.757812 99.498438 
" style="fill:none;stroke:#ff0000;stroke-linecap:square;stroke-width:1.5;"/>
    </g>
    <g id="line2d_155">
     <g>
      <use style="fill:#ff0000;stroke:#ff0000;" x="990.757812" xlink:href="#m9b72541b2e" y="99.498438"/>
     </g>
    </g>
    <g id="text_31">
     <!-- U(t) -->
     <g transform="translate(1008.757812 102.998438)scale(0.1 -0.1)">
      <defs>
       <path d="M 556 4666 
L 1191 4666 
L 1191 1831 
Q 1191 1081 1462 751 
Q 1734 422 2344 422 
Q 2950 422 3222 751 
Q 3494 1081 3494 1831 
L 3494 4666 
L 4128 4666 
L 4128 1753 
Q 4128 841 3676 375 
Q 3225 -91 2344 -91 
Q 1459 -91 1007 375 
Q 556 841 556 1753 
L 556 4666 
z
" id="DejaVuSans-55" transform="scale(0.015625)"/>
       <path d="M 1984 4856 
Q 1566 4138 1362 3434 
Q 1159 2731 1159 2009 
Q 1159 1288 1364 580 
Q 1569 -128 1984 -844 
L 1484 -844 
Q 1016 -109 783 600 
Q 550 1309 550 2009 
Q 550 2706 781 3412 
Q 1013 4119 1484 4856 
L 1984 4856 
z
" id="DejaVuSans-28" transform="scale(0.015625)"/>
       <path d="M 1172 4494 
L 1172 3500 
L 2356 3500 
L 2356 3053 
L 1172 3053 
L 1172 1153 
Q 1172 725 1289 603 
Q 1406 481 1766 481 
L 2356 481 
L 2356 0 
L 1766 0 
Q 1100 0 847 248 
Q 594 497 594 1153 
L 594 3053 
L 172 3053 
L 172 3500 
L 594 3500 
L 594 4494 
L 1172 4494 
z
" id="DejaVuSans-74" transform="scale(0.015625)"/>
       <path d="M 513 4856 
L 1013 4856 
Q 1481 4119 1714 3412 
Q 1947 2706 1947 2009 
Q 1947 1309 1714 600 
Q 1481 -109 1013 -844 
L 513 -844 
Q 928 -128 1133 580 
Q 1338 1288 1338 2009 
Q 1338 2731 1133 3434 
Q 928 4138 513 4856 
z
" id="DejaVuSans-29" transform="scale(0.015625)"/>
      </defs>
      <use xlink:href="#DejaVuSans-55"/>
      <use x="73.193359" xlink:href="#DejaVuSans-28"/>
      <use x="112.207031" xlink:href="#DejaVuSans-74"/>
      <use x="151.416016" xlink:href="#DejaVuSans-29"/>
     </g>
    </g>
   </g>
  </g>
 </g>
 <defs>
  <clipPath id="pf22618ab81">
   <rect height="554.4" width="892.8" x="144" y="86.4"/>
  </clipPath>
 </defs>
</svg>
